<svg width="32" height="32" viewBox="0 0 32 32" fill="none" xmlns="http://www.w3.org/2000/svg">
<path d="M29.5768 26.1796C30.1089 25.7063 30.4516 25.0245 30.4516 24.2581C30.4516 23.0121 29.5634 21.9695 28.3871 21.7295V20.129C28.3871 19.2754 27.6924 18.5806 26.8387 18.5806H22.3035L22.8526 18.0315L22.0888 16.7463C22.1646 16.5827 22.2338 16.4181 22.2952 16.2529L23.7419 15.8849V14.4516H24.7742C27.0508 14.4516 28.9032 12.5992 28.9032 10.3226C28.9032 8.21471 27.3156 6.47071 25.2728 6.22348C25.023 2.74994 22.1172 0 18.5806 0C16.144 0 13.8963 1.33987 12.72 3.45342C12.1197 3.21652 11.489 3.09677 10.8387 3.09677C7.99277 3.09677 5.67742 5.41213 5.67742 8.25806C5.67742 8.27252 5.67742 8.28697 5.67742 8.3009C4.21471 8.54761 3.09677 9.82297 3.09677 11.3548C3.09677 13.0627 4.48568 14.4516 6.19355 14.4516H8.25806V15.8849L9.70426 16.2529C9.76568 16.4175 9.83432 16.5827 9.91071 16.7463L9.14684 18.0315L9.69652 18.5806H6.70968C5.856 18.5806 5.16129 19.2754 5.16129 20.129V20.6715C2.272 20.9332 0 23.3662 0 26.3226C0 29.4529 2.5471 32 5.67742 32C8.80774 32 11.3548 29.4529 11.3548 26.3226C11.3548 23.3662 9.08284 20.9332 6.19355 20.6715V20.129C6.19355 19.8446 6.42529 19.6129 6.70968 19.6129H10.7288L11.9045 20.7886L13.1897 20.0248C13.3533 20.1006 13.5179 20.1698 13.6831 20.2312L14.0506 21.6774H15.4839V25.8064H13.4194V32H20.6452V27.871H18.5806V26.8387H16.5161V26.3226V25.8064V21.6774H17.9494L18.3174 20.2312C18.4821 20.1698 18.6472 20.1012 18.8108 20.0248L20.096 20.7886L21.2712 19.6129H26.8387C27.1231 19.6129 27.3548 19.8446 27.3548 20.129V21.7295C26.1786 21.9695 25.2903 23.0116 25.2903 24.2581C25.2903 25.0245 25.633 25.7063 26.1652 26.1796C24.7381 26.8305 23.7419 28.2674 23.7419 29.9355V32H32V29.9355C32 28.2674 31.0039 26.8305 29.5768 26.1796ZM10.3226 26.3226C10.3226 28.8836 8.23845 30.9677 5.67742 30.9677C3.11639 30.9677 1.03226 28.8836 1.03226 26.3226C1.03226 23.7615 3.11639 21.6774 5.67742 21.6774C8.23845 21.6774 10.3226 23.7615 10.3226 26.3226ZM15.4839 30.9677H14.4516V26.8387H15.4839V30.9677ZM19.6129 28.9032V30.9677H18.5806V28.9032H19.6129ZM17.5484 27.871V30.9677H16.5161V27.871H17.5484ZM4.12903 11.3548C4.12903 10.2261 5.03948 9.30581 6.16465 9.29032L6.80052 9.2929L6.73703 8.72C6.72052 8.56877 6.70968 8.41445 6.70968 8.25806C6.70968 5.98142 8.56207 4.12903 10.8387 4.12903C11.4968 4.12903 12.1301 4.28284 12.721 4.58632L13.2005 4.83252L13.4261 4.34271C14.351 2.33187 16.3742 1.03226 18.5806 1.03226C21.711 1.03226 24.2581 3.57936 24.2581 6.70968V7.22581H24.7742C26.4821 7.22581 27.871 8.61471 27.871 10.3226C27.871 12.0305 26.4821 13.4194 24.7742 13.4194H6.19355C5.05497 13.4194 4.12903 12.4934 4.12903 11.3548ZM19.5716 14.4516C19.3197 16.1997 17.8163 17.5484 16 17.5484C14.1837 17.5484 12.6803 16.1997 12.4284 14.4516H19.5716ZM19.9334 19.4911L18.8521 18.848L18.5977 18.9791C18.3097 19.1277 18.0175 19.2501 17.729 19.3425L17.4565 19.4297L17.1474 20.6452H14.8532L14.544 19.4302L14.2715 19.343C13.9825 19.2506 13.6908 19.1283 13.4028 18.9796L13.1484 18.8485L12.0671 19.4916L10.4449 17.8694L11.088 16.7881L10.9569 16.5337C10.8083 16.2457 10.6859 15.9535 10.5935 15.665L10.5063 15.3925L9.29032 15.0828V14.4516H11.3853C11.6434 16.7706 13.6134 18.5806 16 18.5806C18.3866 18.5806 20.3566 16.7706 20.6147 14.4516H22.7097V15.0828L21.4947 15.392L21.4075 15.6645C21.3151 15.9535 21.1928 16.2452 21.0441 16.5332L20.913 16.7876L21.5561 17.8689L19.9334 19.4911ZM26.3226 24.2581C26.3226 23.4044 27.0173 22.7097 27.871 22.7097C28.7246 22.7097 29.4194 23.4044 29.4194 24.2581C29.4194 25.1117 28.7246 25.8064 27.871 25.8064C27.0173 25.8064 26.3226 25.1117 26.3226 24.2581ZM30.9677 30.9677H24.7742V29.9355C24.7742 28.2276 26.1631 26.8387 27.871 26.8387C29.5788 26.8387 30.9677 28.2276 30.9677 29.9355V30.9677Z" fill="#D33E43"/>
<path d="M7.87503 25.0536V27.5982C7.87503 27.7048 7.8327 27.807 7.75735 27.8823C7.68201 27.9577 7.57981 28 7.47325 28C7.36669 28 7.26449 27.9577 7.18914 27.8823C7.11379 27.807 7.07146 27.7048 7.07146 27.5982V24.5179C7.07146 24.4468 7.04324 24.3787 6.99301 24.3285C6.94278 24.2782 6.87465 24.25 6.80361 24.25H4.12503C4.05399 24.25 3.98586 24.2782 3.93563 24.3285C3.8854 24.3787 3.85718 24.4468 3.85718 24.5179V27.5982C3.85718 27.7048 3.89951 27.807 3.97486 27.8823C4.05021 27.9577 4.1524 28 4.25896 28H7.47325" fill="#D33E43"/>
<path d="M7.87503 25.0536V27.5982C7.87503 27.7048 7.8327 27.807 7.75735 27.8823C7.68201 27.9577 7.57981 28 7.47325 28C7.36669 28 7.26449 27.9577 7.18914 27.8823C7.11379 27.807 7.07146 27.7048 7.07146 27.5982V24.5179C7.07146 24.4468 7.04324 24.3787 6.99301 24.3285C6.94278 24.2782 6.87465 24.25 6.80361 24.25H4.12503C4.05399 24.25 3.98586 24.2782 3.93563 24.3285C3.8854 24.3787 3.85718 24.4468 3.85718 24.5179V27.5982C3.85718 27.7048 3.89951 27.807 3.97486 27.8823C4.05021 27.9577 4.1524 28 4.25896 28H7.47325" stroke="#D33E43" stroke-width="0.200893" stroke-linecap="round" stroke-linejoin="round"/>
<path d="M4.52679 26.6606H6.40179" stroke="white" stroke-width="0.200893" stroke-linecap="round" stroke-linejoin="round"/>
<path d="M4.52679 27.1963H5.59822" stroke="white" stroke-width="0.200893" stroke-linecap="round" stroke-linejoin="round"/>
<path d="M6.26787 24.9197H4.66072C4.58676 24.9197 4.52679 24.9796 4.52679 25.0536V25.8572C4.52679 25.9311 4.58676 25.9911 4.66072 25.9911H6.26787C6.34183 25.9911 6.40179 25.9311 6.40179 25.8572V25.0536C6.40179 24.9796 6.34183 24.9197 6.26787 24.9197Z" stroke="white" stroke-width="0.200893" stroke-linecap="round" stroke-linejoin="round"/>
<path d="M11.871 8.25806C11.0173 8.25806 10.3226 8.95277 10.3226 9.80644C10.3226 10.6601 11.0173 11.3548 11.871 11.3548C12.7246 11.3548 13.4193 10.6601 13.4193 9.80644C13.4193 8.95277 12.7246 8.25806 11.871 8.25806ZM11.871 10.3226C11.5866 10.3226 11.3548 10.0908 11.3548 9.80644C11.3548 9.52206 11.5866 9.29031 11.871 9.29031C12.1553 9.29031 12.3871 9.52206 12.3871 9.80644C12.3871 10.0908 12.1553 10.3226 11.871 10.3226Z" fill="#D33E43"/>
<path d="M16 8.25806C15.1463 8.25806 14.4516 8.95277 14.4516 9.80644C14.4516 10.6601 15.1463 11.3548 16 11.3548C16.8537 11.3548 17.5484 10.6601 17.5484 9.80644C17.5484 8.95277 16.8537 8.25806 16 8.25806ZM16 10.3226C15.7156 10.3226 15.4839 10.0908 15.4839 9.80644C15.4839 9.52206 15.7156 9.29031 16 9.29031C16.2844 9.29031 16.5161 9.52206 16.5161 9.80644C16.5161 10.0908 16.2844 10.3226 16 10.3226Z" fill="#D33E43"/>
<path d="M20.129 8.25806C19.2753 8.25806 18.5806 8.95277 18.5806 9.80644C18.5806 10.6601 19.2753 11.3548 20.129 11.3548C20.9827 11.3548 21.6774 10.6601 21.6774 9.80644C21.6774 8.95277 20.9827 8.25806 20.129 8.25806ZM20.129 10.3226C19.8446 10.3226 19.6129 10.0908 19.6129 9.80644C19.6129 9.52206 19.8446 9.29031 20.129 9.29031C20.4134 9.29031 20.6451 9.52206 20.6451 9.80644C20.6451 10.0908 20.4134 10.3226 20.129 10.3226Z" fill="#D33E43"/>
<path d="M18.5806 2.06445V3.09671C20.5729 3.09671 22.1935 4.71736 22.1935 6.70961C22.1935 6.86291 22.1837 7.01362 22.1657 7.16174L23.1897 7.28974C23.2139 7.09878 23.2258 6.90368 23.2258 6.70961C23.2258 4.14858 21.1417 2.06445 18.5806 2.06445Z" fill="#D33E43"/>
</svg>
