<svg width="32" height="32" viewBox="0 0 32 32" fill="none" xmlns="http://www.w3.org/2000/svg">
<path d="M31.0013 16C31.0011 15.1292 30.7168 14.2823 30.1915 13.5878C29.6661 12.8933 28.9285 12.3892 28.0906 12.152C28.5043 11.7508 28.7936 11.239 28.9239 10.6777C29.0543 10.1164 29.0201 9.52946 28.8256 8.98707C28.631 8.44468 28.2843 7.96982 27.827 7.61932C27.3696 7.26881 26.821 7.05751 26.2466 7.01068C26.0839 6.82764 25.8994 6.66511 25.6973 6.52668C26.0906 5.56867 26.097 4.49547 25.7152 3.53282C25.3334 2.57018 24.5931 1.79313 23.6501 1.36514C22.7071 0.937157 21.6348 0.89159 20.6589 1.23803C19.683 1.58446 18.8794 2.2959 18.4173 3.22268C18.1386 2.8437 17.7746 2.53559 17.3548 2.32324C16.935 2.11089 16.4711 2.00024 16.0006 2.00024C15.5302 2.00024 15.0663 2.11089 14.6465 2.32324C14.2267 2.53559 13.8627 2.8437 13.584 3.22268C13.1219 2.2959 12.3183 1.58446 11.3424 1.23803C10.3665 0.89159 9.29421 0.937157 8.35118 1.36514C7.40816 1.79313 6.66788 2.57018 6.28607 3.53282C5.90426 4.49547 5.91068 5.56867 6.30398 6.52668C6.10203 6.66478 5.91797 6.82735 5.75597 7.01068C5.18183 7.05782 4.63341 7.26927 4.17622 7.61976C3.71904 7.97025 3.37243 8.44496 3.17782 8.98716C2.98322 9.52937 2.94883 10.1161 3.07878 10.6774C3.20873 11.2386 3.49752 11.7505 3.91064 12.152C3.07274 12.3893 2.33516 12.8935 1.80993 13.5882C1.28469 14.2828 1.00049 15.1298 1.00049 16.0007C1.00049 16.8715 1.28469 17.7186 1.80993 18.4132C2.33516 19.1078 3.07274 19.6121 3.91064 19.8493C3.49738 20.2507 3.20845 20.7625 3.07842 21.3237C2.94838 21.8849 2.98275 22.4717 3.17739 23.0138C3.37204 23.556 3.71874 24.0307 4.17602 24.381C4.63331 24.7313 5.18182 24.9425 5.75597 24.9894C5.9186 25.1721 6.10258 25.3345 6.30398 25.4733C5.91068 26.4314 5.90426 27.5046 6.28607 28.4672C6.66788 29.4299 7.40816 30.2069 8.35118 30.6349C9.29421 31.0629 10.3665 31.1084 11.3424 30.762C12.3183 30.4156 13.1219 29.7041 13.584 28.7773C13.8627 29.1563 14.2267 29.4644 14.6465 29.6768C15.0663 29.8891 15.5302 29.9998 16.0006 29.9998C16.4711 29.9998 16.935 29.8891 17.3548 29.6768C17.7746 29.4644 18.1386 29.1563 18.4173 28.7773C18.8794 29.7041 19.683 30.4156 20.6589 30.762C21.6348 31.1084 22.7071 31.0629 23.6501 30.6349C24.5931 30.2069 25.3334 29.4299 25.7152 28.4672C26.097 27.5046 26.0906 26.4314 25.6973 25.4733C25.8992 25.3352 26.0833 25.1727 26.2453 24.9894C26.8197 24.9431 27.3687 24.7322 27.8263 24.3819C28.284 24.0317 28.6309 23.5569 28.8257 23.0145C29.0204 22.4721 29.0546 21.885 28.9243 21.3237C28.7939 20.7623 28.5045 20.2504 28.0906 19.8493C28.9287 19.6121 29.6665 19.1078 30.1919 18.4131C30.7172 17.7183 31.0014 16.871 31.0013 16V16Z" stroke="#D33E43" stroke-width="1.5" stroke-linecap="round" stroke-linejoin="round"/>
<path d="M18 7L10.12 16.176C10.0581 16.2487 10.0183 16.3377 10.0054 16.4323C9.99247 16.527 10.0069 16.6233 10.047 16.71C10.0871 16.7967 10.1512 16.8701 10.2317 16.9214C10.3123 16.9728 10.4058 17.0001 10.5013 17H14V25L21.88 15.824C21.9418 15.7513 21.9815 15.6625 21.9945 15.568C22.0075 15.4735 21.9931 15.3772 21.9532 15.2906C21.9132 15.204 21.8493 15.1306 21.769 15.0791C21.6887 15.0276 21.5954 15.0002 21.5 15H18V7Z" stroke="#D33E43" stroke-width="1.5" stroke-linecap="round" stroke-linejoin="round"/>
</svg>
