<svg width="32" height="32" viewBox="0 0 32 32" fill="none" xmlns="http://www.w3.org/2000/svg">
<path d="M15.0107 3V1" stroke="#D33E43" stroke-width="1.5" stroke-linecap="round" stroke-linejoin="round"/>
<path d="M11.0107 16C12.1153 16 13.0107 15.1046 13.0107 14C13.0107 12.8954 12.1153 12 11.0107 12C9.90611 12 9.01068 12.8954 9.01068 14C9.01068 15.1046 9.90611 16 11.0107 16Z" stroke="#D33E43" stroke-width="1.5" stroke-linecap="round" stroke-linejoin="round"/>
<path d="M19.0107 16C20.1153 16 21.0107 15.1046 21.0107 14C21.0107 12.8954 20.1153 12 19.0107 12C17.9061 12 17.0107 12.8954 17.0107 14C17.0107 15.1046 17.9061 16 19.0107 16Z" stroke="#D33E43" stroke-width="1.5" stroke-linecap="round" stroke-linejoin="round"/>
<path d="M25.0107 19.0001C25.0107 19.0001 25.7587 31.0001 15.0107 31.0001C4.26268 31.0001 5.01068 19.0001 5.01068 19.0001V11.6561C5.01309 11.091 5.13495 10.5327 5.36827 10.018C5.60158 9.50327 5.94107 9.04368 6.36448 8.66938C6.78789 8.29507 7.28564 8.01451 7.8251 7.84608C8.36455 7.67766 8.93352 7.62518 9.49468 7.69209C13.1568 8.08943 16.8512 8.08943 20.5133 7.69209C21.0744 7.62424 21.6434 7.67575 22.1831 7.84324C22.7228 8.01073 23.221 8.29041 23.645 8.66396C24.069 9.0375 24.4093 9.49646 24.6435 10.0107C24.8777 10.525 25.0006 11.083 25.004 11.6481L25.0107 19.0001Z" stroke="#D33E43" stroke-width="1.5" stroke-linecap="round" stroke-linejoin="round"/>
<path d="M5 20C3.93913 20 2.92172 19.5786 2.17157 18.8284C1.42143 18.0783 1 17.0609 1 16C1 14.9391 1.42143 13.9217 2.17157 13.1716C2.92172 12.4214 3.93913 12 5 12" stroke="#D33E43" stroke-width="1.5" stroke-linecap="round" stroke-linejoin="round"/>
<path d="M25 20C26.0609 20 27.0783 19.5786 27.8284 18.8284C28.5786 18.0783 29 17.0609 29 16C29 14.9391 28.5786 13.9217 27.8284 13.1716C27.0783 12.4214 26.0609 12 25 12" stroke="#D33E43" stroke-width="1.5" stroke-linecap="round" stroke-linejoin="round"/>
<path d="M5 20H25" stroke="#D33E43" stroke-width="1.5" stroke-linecap="round" stroke-linejoin="round"/>
<path d="M8.38 7.71993C8.85318 6.34701 9.74148 5.15515 10.9219 4.30936C12.1024 3.46357 13.5166 3.00569 14.9687 2.9991C16.4209 2.9925 17.8392 3.43754 19.0272 4.27258C20.2153 5.10762 21.1144 6.29136 21.6 7.65993" stroke="#D33E43" stroke-width="1.5" stroke-linecap="round" stroke-linejoin="round"/>
<path d="M11 24.6665C11.0659 24.6665 11.1304 24.6861 11.1852 24.7227C11.24 24.7593 11.2827 24.8114 11.308 24.8723C11.3332 24.9332 11.3398 25.0002 11.3269 25.0649C11.3141 25.1295 11.2823 25.1889 11.2357 25.2355C11.1891 25.2822 11.1297 25.3139 11.0651 25.3268C11.0004 25.3396 10.9334 25.333 10.8725 25.3078C10.8116 25.2826 10.7595 25.2398 10.7229 25.185C10.6862 25.1302 10.6667 25.0658 10.6667 24.9998C10.6667 24.9114 10.7018 24.8266 10.7643 24.7641C10.8268 24.7016 10.9116 24.6665 11 24.6665Z" stroke="#D33E43" stroke-width="1.5" stroke-linecap="round" stroke-linejoin="round"/>
<path d="M15 24.6665C15.0659 24.6665 15.1304 24.6861 15.1852 24.7227C15.24 24.7593 15.2827 24.8114 15.308 24.8723C15.3332 24.9332 15.3398 25.0002 15.3269 25.0649C15.3141 25.1295 15.2823 25.1889 15.2357 25.2355C15.1891 25.2822 15.1297 25.3139 15.0651 25.3268C15.0004 25.3396 14.9334 25.333 14.8725 25.3078C14.8116 25.2826 14.7595 25.2398 14.7229 25.185C14.6862 25.1302 14.6667 25.0658 14.6667 24.9998C14.6667 24.9114 14.7018 24.8266 14.7643 24.7641C14.8268 24.7016 14.9116 24.6665 15 24.6665Z" stroke="#D33E43" stroke-width="1.5" stroke-linecap="round" stroke-linejoin="round"/>
<path d="M19 24.6665C19.0659 24.6665 19.1304 24.6861 19.1852 24.7227C19.24 24.7593 19.2828 24.8114 19.308 24.8723C19.3332 24.9332 19.3398 25.0002 19.327 25.0649C19.3141 25.1295 19.2823 25.1889 19.2357 25.2355C19.1891 25.2822 19.1297 25.3139 19.0651 25.3268C19.0004 25.3396 18.9334 25.333 18.8725 25.3078C18.8116 25.2826 18.7595 25.2398 18.7229 25.185C18.6862 25.1302 18.6667 25.0658 18.6667 24.9998C18.6667 24.9114 18.7018 24.8266 18.7643 24.7641C18.8268 24.7016 18.9116 24.6665 19 24.6665Z" stroke="#D33E43" stroke-width="1.5" stroke-linecap="round" stroke-linejoin="round"/>
</svg>
