<?xml version="1.0" encoding="UTF-8" standalone="no"?>
<svg width="486px" height="417px" viewBox="0 0 486 417" version="1.1" xmlns="http://www.w3.org/2000/svg" xmlns:xlink="http://www.w3.org/1999/xlink">
    <!-- Generator: Sketch 42 (36781) - http://www.bohemiancoding.com/sketch -->
    <title>black-feather</title>
    <desc>Created with Sketch.</desc>
    <defs></defs>
    <g id="Homepage" stroke="none" stroke-width="1" fill="none" fill-rule="evenodd" opacity="0.100000001">
        <g id="Artboard" transform="translate(-15.000000, -13.000000)" fill-rule="nonzero" fill="#231F20">
            <g id="black-feather" transform="translate(15.000000, 13.000000)">
                <g id="Layer_1">
                    <path d="M255.303243,82.721875 C195.954324,120.80625 158.344054,140.49375 158.059459,140.49375 C157.774865,140.49375 137.875135,183.85 136.824324,196.734375 C134.766486,184.659375 134.503784,154.84375 134.635135,154.8 C133.212162,155.478125 47.9651351,219.375 34.5672973,252.121875 C18.3454054,286.071875 43.0175676,332.6875 42.9081081,332.775 C34.0213591,343.285855 25.669972,354.237224 17.8856757,365.5875 C6.69891892,381.775 -0.569189189,397.065625 0.0656756757,399.14375 C0.919459459,403.51875 13.3978378,429.965625 10.7051351,407.303125 C7.20243243,385.0125 54.3575676,350.5375 57.6413514,350.428125 C66.5294595,354.3 105.387568,351.084375 111.845676,355.175 C118.303784,359.265625 148.930541,337.28125 149.412162,337.084375 C149.149459,337.084375 108.408649,350.209375 88.4432432,333.978125 C115.481294,332.869277 142.349772,329.162604 168.677027,322.909375 C165.743514,324.1125 232.754595,254.68125 250.202432,245.909375 C263.534595,238.84375 309.726486,204.2375 310.317568,203.975 C310.164324,203.975 286.915135,214.9125 276.078649,205.046875 C321.613784,195.815625 341.601081,186.51875 341.754324,186.453125 C340.572162,186.978125 406.335405,122.490625 441.647027,83.071875 C458.635135,73.55625 472.295676,57.5 472.295676,57.5 C472.295676,57.5 485.146216,38.446875 485.846757,26.175 C473.784324,32.25625 468.333243,29.4125 468.333243,29.434375 C468.333243,29.45625 482.190811,11.934375 477.221351,0.1 C472.073736,1.99944552 466.702366,3.2272902 461.24027,3.753125 C446.826647,5.79630033 432.626917,9.13483538 418.813784,13.728125 C396.330811,21.121875 315.44027,44.24375 255.303243,82.721875 Z M239.344054,168.296875 C312.681892,120.7625 405.722432,66.271875 439.195135,51.8125 C439.589189,51.8125 338.492432,114.4625 258.105405,168.84375 C174.15,224.821875 110.751081,272.465625 105.803514,278.7875 C94.4635135,291.43125 69.1127027,320.35 67.1643243,325.578125 C66.9235135,326.43125 66.8359459,326.715625 66.9235135,326.190625 C66.9826103,325.978767 67.063303,325.773526 67.1643243,325.578125 C68.3902703,320.371875 77.8913514,290.971875 97.3313514,270.2125 C107.883243,258.378125 163.838919,216.815625 239.344054,168.296875 L239.344054,168.296875 Z" id="Shape"></path>
                </g>
            </g>
        </g>
    </g>
</svg>