<svg id="Layer_1" data-name="Layer 1" xmlns="http://www.w3.org/2000/svg" viewBox="0 0 221.94 190.29"><defs><style>.cls-1{fill:#231f20;}</style></defs><title>blackbird-feather-black-rgb</title><path class="cls-1" d="M407.78,248.59C380.67,266,363.49,275,363.36,275s-9.22,19.82-9.7,25.71c-.94-5.52-1.06-19.15-1-19.17-.65.31-39.59,29.52-45.71,44.49-7.41,15.52,3.86,36.83,3.81,36.87a187.36,187.36,0,0,0-11.43,15c-5.11,7.4-8.43,14.39-8.14,15.34.39,2,6.09,14.09,4.86,3.73-1.6-10.19,19.94-25.95,21.44-26,4.06,1.77,21.81.3,24.76,2.17s16.94-8.18,17.16-8.27c-.12,0-18.73,6-27.85-1.42a192.64,192.64,0,0,0,36.65-5.06c-1.34.55,29.27-31.19,37.24-35.2,6.09-3.23,27.19-19.05,27.46-19.17-.07,0-10.69,5-15.64.49,20.8-4.22,29.93-8.47,30-8.5-.54.24,29.5-29.24,45.63-47.26,7.76-4.35,14-11.69,14-11.69s5.87-8.71,6.19-14.32c-5.51,2.78-8,1.48-8,1.49s6.33-8,4.06-13.41a29.14,29.14,0,0,1-7.3,1.67,110.55,110.55,0,0,0-19.38,4.56C472.2,220.43,435.25,231,407.78,248.59Zm-7.29,39.12c33.5-21.73,76-46.64,91.29-53.25.18,0-46,28.64-82.72,53.5-38.35,25.59-67.31,47.37-69.57,50.26-5.18,5.78-16.76,19-17.65,21.39-.11.39-.15.52-.11.28a1.47,1.47,0,0,1,.11-.28c.56-2.38,4.9-15.82,13.78-25.31C340.44,328.89,366,309.89,400.49,287.71Z" transform="translate(-291.16 -210.86)"/></svg>