<?xml version="1.0" encoding="UTF-8" standalone="no"?>
<svg width="532px" height="456px" viewBox="0 0 532 456" version="1.1" xmlns="http://www.w3.org/2000/svg" xmlns:xlink="http://www.w3.org/1999/xlink">
    <!-- Generator: Sketch 42 (36781) - http://www.bohemiancoding.com/sketch -->
    <title>Shape</title>
    <desc>Created with Sketch.</desc>
    <defs></defs>
    <g id="Homepage" stroke="none" stroke-width="1" fill="none" fill-rule="evenodd">
        <g id="Artboard" transform="translate(-3320.000000, -1398.000000)" fill-rule="nonzero" fill="#FFFFFF">
            <g id="logo-white" transform="translate(1916.000000, 847.000000)">
                <g id="Layer_1">
                    <path d="M1683.06831,641.918284 C1618.29877,683.502985 1577.01292,705.014925 1577.01292,705.166418 C1577.01292,705.31791 1554.96855,752.507836 1553.83225,766.596642 C1552.1598,751.379139 1551.35047,736.079152 1551.40812,720.770149 C1549.81729,721.527612 1456.79157,791.365672 1442.09532,826.814925 C1424.36892,863.930597 1451.33729,914.83209 1451.18578,914.907836 C1441.47452,926.384031 1432.34725,938.341829 1423.83865,950.735821 C1411.64228,968.460448 1403.68812,985.124627 1404.36991,987.397015 C1405.27895,992.093284 1418.91465,1021.1041 1415.96025,996.335075 C1413.00585,971.566045 1463.60942,934.298881 1467.2456,934.147388 C1476.94209,938.389179 1519.36425,934.829104 1526.40935,939.373881 C1533.45446,943.918657 1566.93766,919.831343 1567.46794,919.604104 C1567.99822,919.376866 1522.69742,933.995896 1500.88031,916.195522 C1530.41736,914.978046 1559.76854,910.919516 1588.52751,904.076119 C1585.34585,905.363806 1658.52406,829.541791 1677.53828,819.922015 C1692.08302,812.347388 1742.53508,774.474254 1743.21686,774.095522 C1743.89865,773.716791 1717.68782,785.987687 1705.79446,775.231716 C1730.32628,770.988909 1754.34539,764.185022 1777.4576,754.931716 C1776.16978,755.537687 1847.98443,685.01791 1886.54314,641.99403 C1899.08148,634.431683 1910.39709,625.007207 1920.10209,614.043657 C1920.10209,614.043657 1934.11655,593.213433 1935.25286,579.806343 C1922.07169,586.472015 1916.01138,583.366418 1916.01138,583.366418 C1916.01138,583.366418 1931.16215,564.126866 1925.70788,551.325746 C1920.09656,553.406395 1914.24058,554.75568 1908.28449,555.340299 C1892.53391,557.573637 1877.01715,561.224276 1861.92314,566.247761 C1837.07588,574.579851 1748.74689,600.257836 1683.06831,641.918284 Z M1665.64492,735.389179 C1745.71674,683.427239 1847.45415,623.890672 1883.89175,608.135448 C1884.34628,608.135448 1774.04868,676.30709 1686.17422,735.995149 C1594.51206,797.122388 1525.27305,849.235821 1519.51575,856.128731 C1507.09212,869.914552 1479.44197,901.576493 1477.32086,907.257463 L1477.32086,907.939179 C1477.29858,907.712487 1477.29858,907.484155 1477.32086,907.257463 C1483.74037,884.891612 1494.98911,864.20635 1510.27378,846.660448 C1522.16714,833.859328 1583.14898,788.411567 1665.64492,735.389179 L1665.64492,735.389179 Z" id="Shape"></path>
                </g>
            </g>
        </g>
    </g>
</svg>