<?xml version="1.0" encoding="UTF-8" standalone="no"?><!DOCTYPE svg PUBLIC "-//W3C//DTD SVG 1.1//EN" "http://www.w3.org/Graphics/SVG/1.1/DTD/svg11.dtd"><svg width="100%" height="100%" viewBox="0 0 127 54" version="1.1" xmlns="http://www.w3.org/2000/svg" xmlns:xlink="http://www.w3.org/1999/xlink" xml:space="preserve" xmlns:serif="http://www.serif.com/" style="fill-rule:evenodd;clip-rule:evenodd;stroke-linejoin:round;stroke-miterlimit:1.41421;"><g><g><path d="M5.02,43.408c-0.292,-0.053 -0.597,-0.08 -0.914,-0.08c-0.266,0.004 -0.584,0.048 -0.957,0.135c-0.234,0.053 -0.543,0.175 -0.923,0.363c-0.29,0.143 -0.588,0.364 -0.89,0.663c-0.302,0.292 -0.543,0.609 -0.727,0.955c-0.234,0.444 -0.397,0.916 -0.493,1.412c-0.077,0.39 -0.116,0.821 -0.116,1.297c0,0.225 0.044,0.557 0.129,0.995c0.107,0.546 0.286,1.02 0.535,1.421c0.258,0.414 0.579,0.769 0.965,1.063c0.394,0.303 0.818,0.536 1.274,0.695c0.455,0.159 0.902,0.239 1.344,0.239c0.348,0 0.875,-0.102 1.575,-0.306c0.333,0.459 0.612,0.776 0.835,0.953c0.247,0.191 0.475,0.318 0.683,0.374c0.05,0.013 0.128,0.024 0.233,0.034c0.107,0.009 0.229,0.017 0.365,0.022c0.139,0.004 0.343,0.005 0.614,0.005l0,-1.055c-0.256,0.006 -0.405,0.011 -0.448,0.011c-0.355,0 -0.615,-0.044 -0.783,-0.129c-0.122,-0.065 -0.334,-0.289 -0.638,-0.671c0.442,-0.352 0.761,-0.651 0.96,-0.897c0.268,-0.344 0.491,-0.771 0.662,-1.279c0.168,-0.491 0.253,-1.067 0.253,-1.728c0,-0.318 -0.052,-0.698 -0.154,-1.135c-0.131,-0.57 -0.342,-1.091 -0.633,-1.563c-0.212,-0.352 -0.496,-0.665 -0.849,-0.941c-0.348,-0.274 -0.709,-0.482 -1.083,-0.626c-0.253,-0.098 -0.527,-0.174 -0.819,-0.227Zm-0.802,0.941c0.274,0 0.58,0.041 0.915,0.13c0.301,0.077 0.555,0.19 0.769,0.342c0.332,0.238 0.604,0.524 0.818,0.861c0.21,0.337 0.361,0.723 0.456,1.162c0.048,0.23 0.084,0.422 0.106,0.578c0.023,0.155 0.034,0.31 0.034,0.461c0,0.226 -0.015,0.472 -0.044,0.744c-0.048,0.467 -0.159,0.866 -0.33,1.198c-0.169,0.324 -0.456,0.689 -0.861,1.095c-0.189,-0.28 -0.365,-0.508 -0.531,-0.686c-0.163,-0.178 -0.324,-0.32 -0.484,-0.428c-0.461,-0.305 -0.928,-0.46 -1.408,-0.46c-0.393,0 -0.754,0.111 -1.082,0.333c-0.2,0.133 -0.372,0.408 -0.517,0.821c-0.237,-0.327 -0.387,-0.562 -0.448,-0.705c-0.122,-0.292 -0.233,-0.672 -0.331,-1.144c-0.034,-0.171 -0.049,-0.446 -0.049,-0.823c0,-0.525 0.093,-1.024 0.28,-1.5c0.197,-0.493 0.421,-0.866 0.673,-1.126c0.265,-0.274 0.564,-0.484 0.897,-0.626c0.343,-0.151 0.722,-0.227 1.137,-0.227Zm-1.174,6.091c0.143,-0.131 0.338,-0.197 0.584,-0.197c0.249,0 0.496,0.076 0.737,0.228c0.234,0.147 0.532,0.445 0.891,0.891c-0.376,0.128 -0.662,0.191 -0.853,0.191c-0.305,0 -0.602,-0.041 -0.899,-0.122c-0.199,-0.059 -0.452,-0.176 -0.756,-0.351c0.051,-0.292 0.148,-0.505 0.296,-0.64Z" style="fill:#818084;fill-rule:nonzero;"/><path d="M14.65,50.243l0,-4.228l1.057,0l0,6.33l-1.057,0l0,-0.946c-0.401,0.413 -0.772,0.697 -1.112,0.849c-0.357,0.155 -0.765,0.233 -1.224,0.233c-0.47,0 -0.902,-0.116 -1.292,-0.345c-0.379,-0.225 -0.653,-0.53 -0.816,-0.915c-0.103,-0.229 -0.153,-0.584 -0.153,-1.064l0,-4.142l1.081,0l0,3.945c0,0.569 0.117,0.982 0.349,1.235c0.234,0.251 0.552,0.377 0.955,0.377c0.831,0 1.569,-0.444 2.212,-1.329Z" style="fill:#818084;fill-rule:nonzero;"/><path d="M21.583,52.169c0.197,0.16 0.439,0.241 0.727,0.241l1.136,0l0,-0.929c-0.123,0 -0.228,0.001 -0.319,0.007c-0.091,0.003 -0.149,0.004 -0.173,0.004c-0.249,0 -0.428,-0.055 -0.534,-0.164c-0.11,-0.119 -0.167,-0.308 -0.167,-0.566c0,-0.021 0.004,-0.099 0.013,-0.24c0,-0.025 0.001,-0.047 0.005,-0.068c0.001,-0.02 0.002,-0.052 0.002,-0.098c0,-1.341 -0.026,-2.221 -0.075,-2.644c-0.049,-0.422 -0.186,-0.772 -0.411,-1.05c-0.213,-0.278 -0.509,-0.494 -0.885,-0.645c-0.349,-0.148 -0.708,-0.222 -1.076,-0.222c-0.812,0 -1.456,0.195 -1.931,0.583c-0.282,0.227 -0.542,0.672 -0.781,1.342l1.29,0c0.092,-0.342 0.225,-0.577 0.401,-0.708c0.285,-0.205 0.602,-0.308 0.947,-0.308c0.406,0 0.728,0.112 0.966,0.339c0.241,0.23 0.388,0.614 0.441,1.156c-1.18,0.2 -2.012,0.395 -2.496,0.583c-0.634,0.246 -1.084,0.551 -1.345,0.91c-0.267,0.365 -0.401,0.738 -0.401,1.119c0,0.451 0.15,0.857 0.449,1.218c0.3,0.36 0.769,0.54 1.414,0.54c0.438,0 0.832,-0.065 1.18,-0.197c0.34,-0.126 0.773,-0.391 1.298,-0.793c0.061,0.271 0.17,0.467 0.325,0.59Zm-2.544,-0.571c-0.287,0 -0.513,-0.076 -0.676,-0.228c-0.168,-0.154 -0.251,-0.338 -0.251,-0.546c0,-0.23 0.08,-0.464 0.244,-0.701c0.161,-0.234 0.442,-0.429 0.842,-0.584c0.43,-0.168 1.097,-0.336 1.999,-0.504l0,1.414c-0.73,0.767 -1.45,1.149 -2.158,1.149Z" style="fill:#818084;fill-rule:nonzero;"/><rect x="24.26" y="43.328" width="1.18" height="9.073" style="fill:#818084;fill-rule:nonzero;"/><path d="M26.896,52.365l0,-6.416l1.144,0l0,6.416l-1.144,0Zm-0.062,-8.642l0.16,-0.196l0.959,0l0.184,0.196l0,0.886l-0.222,0.183l-0.921,0l-0.16,-0.183l0,-0.886Z" style="fill:#818084;fill-rule:nonzero;"/><path d="M30.252,46.162l0,-2.237l1.035,0l0,2.237l2.128,0l0,0.972l-2.128,0l0,3.307c0,0.245 0.04,0.433 0.123,0.565c0.077,0.128 0.179,0.213 0.301,0.258c0.182,0.061 0.508,0.093 0.984,0.093c0.131,0 0.297,-0.007 0.498,-0.018l0,1.032c-0.861,0 -1.35,-0.006 -1.47,-0.018c-0.379,-0.055 -0.68,-0.156 -0.896,-0.309c-0.226,-0.154 -0.385,-0.335 -0.475,-0.541c-0.065,-0.143 -0.1,-0.387 -0.1,-0.73l0,-3.639l-1.177,0l0,-0.972l1.177,0Z" style="fill:#818084;fill-rule:nonzero;"/><path d="M36.636,51.707l-2.704,-5.692l1.291,0l2.041,4.499l1.793,-4.499l1.254,0c-0.286,0.712 -0.646,1.584 -1.082,2.612c-0.372,0.886 -0.676,1.588 -0.914,2.108c-0.216,0.476 -0.402,0.846 -0.553,1.113c-0.456,0.806 -0.945,1.37 -1.47,1.689c-0.405,0.247 -0.943,0.37 -1.612,0.37l-0.748,0l0,-1.082c0.748,-0.004 1.172,-0.014 1.265,-0.03c0.297,-0.05 0.531,-0.139 0.707,-0.264c0.255,-0.186 0.498,-0.46 0.732,-0.824Z" style="fill:#818084;fill-rule:nonzero;"/><path d="M48.798,52.169c0.197,0.16 0.437,0.241 0.725,0.241l1.137,0l0,-0.929c-0.123,0 -0.228,0.001 -0.319,0.007c-0.091,0.003 -0.149,0.004 -0.173,0.004c-0.249,0 -0.428,-0.055 -0.535,-0.164c-0.11,-0.119 -0.165,-0.308 -0.165,-0.566c0,-0.021 0.003,-0.099 0.011,-0.24c0,-0.025 0.003,-0.047 0.004,-0.068c0.001,-0.02 0.004,-0.052 0.004,-0.098c0,-1.341 -0.026,-2.221 -0.075,-2.644c-0.049,-0.422 -0.187,-0.772 -0.412,-1.05c-0.213,-0.278 -0.508,-0.494 -0.883,-0.645c-0.35,-0.148 -0.71,-0.222 -1.077,-0.222c-0.812,0 -1.456,0.195 -1.931,0.583c-0.283,0.227 -0.542,0.672 -0.78,1.342l1.29,0c0.091,-0.342 0.223,-0.577 0.4,-0.708c0.287,-0.205 0.602,-0.308 0.947,-0.308c0.405,0 0.727,0.112 0.964,0.339c0.243,0.23 0.39,0.614 0.443,1.156c-1.18,0.2 -2.011,0.395 -2.495,0.583c-0.635,0.246 -1.084,0.551 -1.346,0.91c-0.267,0.365 -0.4,0.738 -0.4,1.119c0,0.451 0.149,0.857 0.449,1.218c0.3,0.36 0.77,0.54 1.413,0.54c0.438,0 0.832,-0.065 1.18,-0.197c0.34,-0.126 0.774,-0.391 1.298,-0.793c0.062,0.271 0.169,0.467 0.326,0.59Zm-2.545,-0.571c-0.288,0 -0.513,-0.076 -0.676,-0.228c-0.169,-0.154 -0.253,-0.338 -0.253,-0.546c0,-0.23 0.083,-0.464 0.247,-0.701c0.16,-0.234 0.44,-0.429 0.842,-0.584c0.43,-0.168 1.096,-0.336 1.996,-0.504l0,1.414c-0.729,0.767 -1.446,1.149 -2.156,1.149Z" style="fill:#818084;fill-rule:nonzero;"/><path d="M57.025,48.214l0,4.157l-1.082,0l0,-4.34c0,-0.401 -0.12,-0.734 -0.357,-0.995c-0.185,-0.206 -0.435,-0.309 -0.756,-0.309c-0.344,0 -0.698,0.105 -1.063,0.314c-0.168,0.095 -0.365,0.237 -0.593,0.427c-0.229,0.191 -0.468,0.423 -0.722,0.698l0,4.18l-1.058,0l0,-6.282l1.058,0l0,1.021c0.483,-0.472 0.905,-0.796 1.266,-0.972c0.356,-0.172 0.738,-0.259 1.144,-0.259c0.53,0 0.973,0.114 1.321,0.34c0.352,0.224 0.581,0.52 0.683,0.884c0.106,0.377 0.159,0.756 0.159,1.136Z" style="fill:#818084;fill-rule:nonzero;"/><path d="M62.142,45.935c-0.336,-0.176 -0.727,-0.263 -1.17,-0.263c-0.547,0 -1.047,0.137 -1.492,0.411c-0.452,0.279 -0.811,0.687 -1.076,1.223c-0.131,0.266 -0.232,0.551 -0.303,0.856c-0.069,0.297 -0.104,0.598 -0.104,0.896c0,0.55 0.089,1.068 0.263,1.556c0.145,0.384 0.361,0.728 0.649,1.033c0.306,0.32 0.631,0.544 0.97,0.675c0.352,0.135 0.703,0.203 1.051,0.203c0.385,0 0.766,-0.096 1.144,-0.288c0.272,-0.139 0.627,-0.447 1.057,-0.923l0,1.057l1.095,0l0,-9.023l-1.095,0l0,3.455c-0.328,-0.403 -0.658,-0.691 -0.989,-0.868Zm-2.866,2.189c0.057,-0.237 0.124,-0.413 0.197,-0.529c0.069,-0.115 0.161,-0.235 0.276,-0.361c0.357,-0.398 0.823,-0.597 1.397,-0.597c0.431,0 0.831,0.156 1.204,0.466c0.272,0.226 0.53,0.593 0.781,1.101l0,1.807c-0.417,0.598 -0.776,1.001 -1.077,1.205c-0.311,0.21 -0.639,0.313 -0.983,0.313c-0.343,0 -0.665,-0.096 -0.959,-0.294c-0.299,-0.196 -0.533,-0.51 -0.7,-0.941c-0.127,-0.32 -0.199,-0.75 -0.216,-1.29c-0.012,-0.324 0.016,-0.617 0.08,-0.88Z" style="fill:#818084;fill-rule:nonzero;"/><rect x="69.399" y="43.467" width="1.265" height="8.901" style="fill:#818084;fill-rule:nonzero;"/><path d="M78.03,48.214l0,4.157l-1.081,0l0,-4.34c0,-0.401 -0.119,-0.734 -0.357,-0.995c-0.185,-0.206 -0.437,-0.309 -0.756,-0.309c-0.344,0 -0.698,0.105 -1.063,0.314c-0.169,0.095 -0.366,0.237 -0.594,0.427c-0.228,0.191 -0.468,0.423 -0.721,0.698l0,4.18l-1.059,0l0,-6.282l1.059,0l0,1.021c0.482,-0.472 0.905,-0.796 1.265,-0.972c0.356,-0.172 0.737,-0.259 1.143,-0.259c0.533,0 0.974,0.114 1.322,0.34c0.352,0.224 0.579,0.52 0.682,0.884c0.106,0.377 0.16,0.756 0.16,1.136Z" style="fill:#818084;fill-rule:nonzero;"/><path d="M85.034,48.214l0,4.157l-1.082,0l0,-4.34c0,-0.401 -0.121,-0.734 -0.359,-0.995c-0.185,-0.206 -0.436,-0.309 -0.756,-0.309c-0.345,0 -0.698,0.105 -1.063,0.314c-0.168,0.095 -0.365,0.237 -0.595,0.427c-0.225,0.191 -0.467,0.423 -0.72,0.698l0,4.18l-1.057,0l0,-6.282l1.057,0l0,1.021c0.482,-0.472 0.906,-0.796 1.265,-0.972c0.358,-0.172 0.737,-0.259 1.145,-0.259c0.532,0 0.972,0.114 1.322,0.34c0.351,0.224 0.578,0.52 0.679,0.884c0.109,0.377 0.164,0.756 0.164,1.136Z" style="fill:#818084;fill-rule:nonzero;"/><path d="M88.291,45.936c-0.303,0.09 -0.575,0.222 -0.811,0.393c-0.324,0.239 -0.589,0.527 -0.793,0.867c-0.197,0.332 -0.328,0.685 -0.393,1.058c-0.087,0.5 -0.12,0.885 -0.1,1.156c0.028,0.368 0.067,0.656 0.111,0.86c0.085,0.36 0.223,0.693 0.411,0.996c0.206,0.34 0.454,0.613 0.745,0.822c0.286,0.215 0.59,0.355 0.903,0.419c0.32,0.067 0.652,0.099 0.996,0.099c0.153,0 0.413,-0.057 0.786,-0.172c0.226,-0.069 0.474,-0.209 0.739,-0.418c0.283,-0.222 0.519,-0.494 0.714,-0.817c0.159,-0.267 0.284,-0.643 0.374,-1.125c0.061,-0.328 0.093,-0.662 0.093,-1.003c0,-0.201 -0.042,-0.506 -0.124,-0.916c-0.053,-0.279 -0.158,-0.566 -0.314,-0.866c-0.138,-0.271 -0.319,-0.515 -0.54,-0.731c-0.205,-0.206 -0.456,-0.369 -0.749,-0.492c-0.445,-0.181 -0.859,-0.271 -1.243,-0.271c-0.22,0 -0.489,0.046 -0.805,0.141Zm-0.96,2.976c0.034,-0.529 0.13,-0.962 0.29,-1.299c0.139,-0.293 0.348,-0.521 0.629,-0.687c0.291,-0.171 0.604,-0.259 0.932,-0.259c0.353,0 0.675,0.117 0.972,0.351c0.294,0.229 0.493,0.516 0.596,0.86c0.135,0.448 0.202,0.902 0.202,1.365c0,0.529 -0.109,1.027 -0.331,1.493c-0.151,0.317 -0.362,0.554 -0.628,0.708c-0.27,0.157 -0.59,0.234 -0.957,0.234c-0.288,0 -0.571,-0.097 -0.849,-0.29c-0.279,-0.191 -0.483,-0.446 -0.61,-0.761c-0.133,-0.337 -0.216,-0.815 -0.246,-1.433l0,-0.282Z" style="fill:#818084;fill-rule:nonzero;"/><path d="M95.797,51.054l2.065,-5.039l1.231,0l-2.732,6.33l-1.155,0l-2.755,-6.33l1.256,0l2.09,5.039Z" style="fill:#818084;fill-rule:nonzero;"/><path d="M104.271,52.169c0.197,0.16 0.437,0.241 0.726,0.241l1.136,0l0,-0.929c-0.124,0 -0.228,0.001 -0.321,0.007c-0.09,0.003 -0.145,0.004 -0.17,0.004c-0.25,0 -0.429,-0.055 -0.536,-0.164c-0.109,-0.119 -0.166,-0.308 -0.166,-0.566c0,-0.021 0.006,-0.099 0.012,-0.24c0,-0.025 0.003,-0.047 0.004,-0.068c0.001,-0.02 0.003,-0.052 0.003,-0.098c0,-1.341 -0.024,-2.221 -0.074,-2.644c-0.049,-0.422 -0.187,-0.772 -0.412,-1.05c-0.213,-0.278 -0.508,-0.494 -0.883,-0.645c-0.35,-0.148 -0.71,-0.222 -1.077,-0.222c-0.812,0 -1.456,0.195 -1.931,0.583c-0.283,0.227 -0.542,0.672 -0.78,1.342l1.29,0c0.09,-0.342 0.223,-0.577 0.401,-0.708c0.287,-0.205 0.602,-0.308 0.944,-0.308c0.408,0 0.73,0.112 0.967,0.339c0.242,0.23 0.389,0.614 0.441,1.156c-1.179,0.2 -2.013,0.395 -2.493,0.583c-0.637,0.246 -1.085,0.551 -1.346,0.91c-0.268,0.365 -0.401,0.738 -0.401,1.119c0,0.451 0.148,0.857 0.447,1.218c0.302,0.36 0.772,0.54 1.415,0.54c0.439,0 0.831,-0.065 1.18,-0.197c0.341,-0.126 0.774,-0.391 1.298,-0.793c0.062,0.271 0.169,0.467 0.326,0.59Zm-2.544,-0.571c-0.289,0 -0.513,-0.076 -0.677,-0.228c-0.169,-0.154 -0.252,-0.338 -0.252,-0.546c0,-0.23 0.081,-0.464 0.245,-0.701c0.161,-0.234 0.441,-0.429 0.842,-0.584c0.431,-0.168 1.098,-0.336 1.997,-0.504l0,1.414c-0.728,0.767 -1.446,1.149 -2.155,1.149Z" style="fill:#818084;fill-rule:nonzero;"/><path d="M107.471,46.162l0,-2.237l1.033,0l0,2.237l2.126,0l0,0.972l-2.126,0l0,3.307c0,0.245 0.04,0.433 0.122,0.565c0.079,0.128 0.179,0.213 0.3,0.258c0.182,0.061 0.51,0.093 0.986,0.093c0.131,0 0.296,-0.007 0.498,-0.018l0,1.032c-0.861,0 -1.352,-0.006 -1.471,-0.018c-0.381,-0.055 -0.68,-0.156 -0.898,-0.309c-0.223,-0.154 -0.383,-0.335 -0.473,-0.541c-0.066,-0.143 -0.097,-0.387 -0.097,-0.73l0,-3.639l-1.181,0l0,-0.972l1.181,0Z" style="fill:#818084;fill-rule:nonzero;"/><path d="M111.669,52.365l0,-6.416l1.141,0l0,6.416l-1.141,0Zm-0.064,-8.642l0.159,-0.196l0.961,0l0.183,0.196l0,0.886l-0.22,0.183l-0.924,0l-0.159,-0.183l0,-0.886Z" style="fill:#818084;fill-rule:nonzero;"/><path d="M116.312,45.936c-0.304,0.09 -0.574,0.222 -0.813,0.393c-0.324,0.239 -0.588,0.527 -0.793,0.867c-0.198,0.332 -0.328,0.685 -0.394,1.058c-0.085,0.5 -0.119,0.885 -0.097,1.156c0.028,0.368 0.065,0.656 0.109,0.86c0.088,0.36 0.223,0.693 0.412,0.996c0.206,0.34 0.454,0.613 0.745,0.822c0.286,0.215 0.589,0.355 0.903,0.419c0.32,0.067 0.651,0.099 0.997,0.099c0.151,0 0.414,-0.057 0.787,-0.172c0.226,-0.069 0.471,-0.209 0.737,-0.418c0.282,-0.222 0.521,-0.494 0.713,-0.817c0.161,-0.267 0.285,-0.643 0.375,-1.125c0.062,-0.328 0.092,-0.662 0.092,-1.003c0,-0.201 -0.04,-0.506 -0.123,-0.916c-0.055,-0.279 -0.158,-0.566 -0.312,-0.866c-0.14,-0.271 -0.32,-0.515 -0.543,-0.731c-0.204,-0.206 -0.455,-0.369 -0.748,-0.492c-0.442,-0.181 -0.859,-0.271 -1.245,-0.271c-0.22,0 -0.488,0.046 -0.802,0.141Zm-0.961,2.976c0.032,-0.529 0.13,-0.962 0.289,-1.299c0.14,-0.293 0.348,-0.521 0.628,-0.687c0.295,-0.171 0.605,-0.259 0.933,-0.259c0.354,0 0.678,0.117 0.972,0.351c0.295,0.229 0.494,0.516 0.596,0.86c0.136,0.448 0.203,0.902 0.203,1.365c0,0.529 -0.11,1.027 -0.332,1.493c-0.152,0.317 -0.362,0.554 -0.627,0.708c-0.27,0.157 -0.59,0.234 -0.958,0.234c-0.288,0 -0.569,-0.097 -0.848,-0.29c-0.279,-0.191 -0.482,-0.446 -0.609,-0.761c-0.135,-0.337 -0.218,-0.815 -0.247,-1.433l0,-0.282Z" style="fill:#818084;fill-rule:nonzero;"/><path d="M126.932,48.214l0,4.157l-1.083,0l0,-4.34c0,-0.401 -0.118,-0.734 -0.354,-0.995c-0.184,-0.206 -0.438,-0.309 -0.757,-0.309c-0.345,0 -0.699,0.105 -1.064,0.314c-0.167,0.095 -0.366,0.237 -0.593,0.427c-0.228,0.191 -0.468,0.423 -0.723,0.698l0,4.18l-1.058,0l0,-6.282l1.058,0l0,1.021c0.484,-0.472 0.907,-0.796 1.267,-0.972c0.357,-0.172 0.738,-0.259 1.143,-0.259c0.533,0 0.974,0.114 1.323,0.34c0.351,0.224 0.58,0.52 0.682,0.884c0.107,0.377 0.159,0.756 0.159,1.136Z" style="fill:#818084;fill-rule:nonzero;"/><path d="M62.007,11.817l2.383,12.501l-10.671,0.012l8.288,-12.513Zm-11.568,17.546l14.903,0l1.927,9.871l14.667,0l-7.592,-39.171l-15.459,0.008c1.408,1.374 1.408,2.44 0.446,4.052l-25.751,35.106l14.071,0c-1.212,-0.696 -1.819,-2.78 -0.855,-4.549l3.643,-5.317Z" style="fill:#b2283c;fill-rule:nonzero;"/><path d="M98.583,0c2.553,2.018 2.122,3.784 1.874,5.803l-7.221,33.368l14.116,0l8.154,-39.171l-16.923,0Z" style="fill:#b2283c;fill-rule:nonzero;"/><path d="M16.952,0c2.555,2.018 2.123,3.784 1.873,5.803l-7.219,33.368l14.118,0l8.15,-39.171l-16.922,0Z" style="fill:#b2283c;fill-rule:nonzero;"/></g></g></svg>