<?xml version="1.0" encoding="UTF-8"?>
<svg width="402px" height="402px" viewBox="0 0 402 402" version="1.1" xmlns="http://www.w3.org/2000/svg" xmlns:xlink="http://www.w3.org/1999/xlink">
    <!-- Generator: Sketch 50.2 (55047) - http://www.bohemiancoding.com/sketch -->
    <title>images</title>
    <desc>Created with Sketch.</desc>
    <defs></defs>
    <g id="Desktop" stroke="none" stroke-width="1" fill="none" fill-rule="evenodd">
        <g id="Capabilities" transform="translate(-196.000000, -2149.000000)">
            <g id="body" transform="translate(0.000000, 1049.000000)">
                <g id="control-systems" transform="translate(132.000000, 1009.000000)">
                    <g id="images" transform="translate(65.000000, 92.000000)">
                        <g id="bg">
                            <path d="M200,0 L200,400" id="Line" stroke="#D4D8D9" stroke-linecap="square"></path>
                            <path d="M0,200 L400,200" id="Line-2" stroke="#D4D8D9" stroke-linecap="square"></path>
                            <g id="if_check-circle-outline_326568" transform="translate(163.000000, 163.000000)">
                                <circle id="Oval-3" fill="#FFFFFF" cx="37" cy="37" r="37"></circle>
                                <path d="M60.0211416,36.0960463 C60.0211416,48.788354 49.6365262,59.1729694 36.9442185,59.1729694 C24.2519108,59.1729694 13.8672955,48.788354 13.8672955,36.0960463 C13.8672955,23.4037386 24.2519108,13.0191233 36.9442185,13.0191233 C39.2519108,13.0191233 41.2711416,13.3075848 43.2903724,13.8845079 L47.905757,9.26912326 C44.4442185,8.11527711 40.6942185,7.24989249 36.9442185,7.24989249 C21.0788339,7.24989249 8.09806469,20.2306617 8.09806469,36.0960463 C8.09806469,51.961431 21.0788339,64.9422002 36.9442185,64.9422002 C52.8096032,64.9422002 65.7903724,51.961431 65.7903724,36.0960463 L60.0211416,36.0960463 Z" id="Shape" fill="#000000" fill-rule="nonzero" transform="translate(36.944219, 36.096046) rotate(-195.000000) translate(-36.944219, -36.096046) "></path>
                                <path d="M41.8494591,44.0073618 L31.4772386,44.0073618 L29.5053335,49.9230769 L23.2149564,49.9230769 L33.9026818,21.2121394 L39.3845778,21.2121394 L50.1314603,49.9230769 L43.8410832,49.9230769 L41.8494591,44.0073618 Z M33.0744817,39.2156325 L40.252216,39.2156325 L36.6436298,28.46875 L33.0744817,39.2156325 Z" id="A" fill="#D33E43"></path>
                            </g>
                        </g>
                        <g id="icons" transform="translate(47.000000, 43.000000)" fill-rule="nonzero">
                            <g id="if_content-form-contract-article-paper_3209382" transform="translate(0.000000, 194.000000)">
                                <path d="M0,13.5695876 L0,108.556701 L76.5,108.556701 L76.5,94.9871134 L90,94.9871134 L90,0 L13.5,0 L13.5,13.5695876 L0,13.5695876 Z M72,104.033505 L4.5,104.033505 L4.5,18.0927835 L13.5,18.0927835 L56.25,18.0927835 L56.25,33.9239691 L72,33.9239691 L72,94.9871134 L72,104.033505 Z M60.75,21.290683 L68.8185,29.4007732 L60.75,29.4007732 L60.75,21.290683 Z M18,4.52319588 L85.5,4.52319588 L85.5,90.4639175 L76.5,90.4639175 L76.5,30.7260696 L59.4315,13.5695876 L18,13.5695876 L18,4.52319588 Z" id="Shape" fill="#D33E43"></path>
                                <rect id="Rectangle-path" fill="#000000" x="12.9896907" y="42.6804124" width="49.1752577" height="3.71134021"></rect>
                                <rect id="Rectangle-path" fill="#000000" x="12.9896907" y="56.5979381" width="49.1752577" height="3.71134021"></rect>
                                <rect id="Rectangle-path" fill="#000000" x="12.9896907" y="70.5154639" width="49.1752577" height="3.71134021"></rect>
                                <rect id="Rectangle-path" fill="#000000" x="12.9896907" y="89.0721649" width="19.4845361" height="3.71134021"></rect>
                                <rect id="Rectangle-path" fill="#000000" x="42.6804124" y="89.0721649" width="19.4845361" height="3.71134021"></rect>
                                <rect id="Rectangle-path" fill="#000000" x="28.7628866" y="28.7628866" width="18.556701" height="3.71134021"></rect>
                            </g>
                            <g id="if_bar-chart_1608569" transform="translate(265.500000, 250.500000) rotate(-270.000000) translate(-265.500000, -250.500000) translate(213.000000, 179.000000)" fill="#D33E43">
                                <path d="M32.8125,103.375 L32.8125,129.625 L19.6875,129.625 L19.6875,103.375 L32.8125,103.375 Z M52.5,57.125 L52.5,109.625 L39.375,109.625 L39.375,57.125 L52.5,57.125 Z M105,136.1875 L105,142.75 L0,142.75 L0,64 L6.5625,64 L6.5625,136.1875 L105,136.1875 Z M72.1875,40.25 L72.1875,79.625 L59.0625,79.625 L59.0625,40.25 L72.1875,40.25 Z M91.875,0.5625 L91.875,59.625 L78.75,59.625 L78.75,0.5625 L91.875,0.5625 Z" id="Shape"></path>
                            </g>
                            <path d="M312.340173,33.3921159 L307.202809,33.3921159 C306.334214,29.9622264 304.980519,26.6963607 303.166795,23.6527903 L306.785279,20.0344727 C307.096725,19.7230268 307.27154,19.3006822 307.27154,18.8604079 C307.271374,18.4199676 307.096393,17.997623 306.784781,17.6865091 L296.283774,7.19330505 C295.635316,6.5453448 294.584767,6.54584285 293.936474,7.19363708 L290.321975,10.8083023 C287.278405,8.99441208 284.012539,7.64105007 280.58265,6.77228861 L280.58265,1.65999347 C280.58265,0.743253404 279.83923,0 278.922656,0 L264.077676,0 C263.161102,0 262.417683,0.743253404 262.417683,1.65999347 L262.417683,6.77212259 C258.987793,7.64071804 255.721927,8.99424607 252.678357,10.8081363 L249.063858,7.19347107 C248.415731,6.5453448 247.365182,6.54517879 246.716558,7.19313904 L236.215551,17.6863431 C235.903939,17.997623 235.728959,18.4199676 235.728793,18.8602419 C235.728793,19.3006822 235.903607,19.7230268 236.215053,20.0343067 L239.833537,23.6526243 C238.019647,26.6961947 236.666285,29.9620604 235.797523,33.3919499 L230.668128,33.3919499 C229.75172,33.3919499 229.008633,34.1347053 229.008135,35.0511133 L229,49.8964255 C228.999834,50.3368658 229.174649,50.7592104 229.485929,51.0708223 C229.797375,51.3822682 230.219719,51.5574151 230.659994,51.5574151 L235.797191,51.5574151 C236.665953,54.9874706 238.019315,58.2533363 239.833205,61.2970727 L236.197622,64.932656 C235.549495,65.5807823 235.549329,66.6314972 236.19729,67.2799555 L246.690328,77.7809623 C247.001774,78.0925743 247.424118,78.2675551 247.864226,78.2677211 L247.864558,78.2677211 C248.304833,78.2677211 248.727011,78.0927403 249.038291,77.7814604 L252.677859,74.1418927 C255.721429,75.955783 258.987461,77.309145 262.417517,78.1780725 L262.417517,83.3323696 C262.417517,84.2489437 263.160936,84.9923631 264.07751,84.9923631 L278.92249,84.9923631 C279.839064,84.9923631 280.582484,84.2489437 280.582484,83.3323696 L280.582484,78.1779065 C284.012539,77.309145 287.278571,75.955451 290.322141,74.1417267 L293.961709,77.7812944 C294.273155,78.0927403 294.695499,78.2675551 295.135774,78.2675551 C295.576048,78.2673891 295.998393,78.0924082 296.309672,77.7807963 L306.802711,67.2797895 C307.450671,66.6314972 307.450505,65.5807823 306.802379,64.93249 L303.166795,61.2969067 C304.980685,58.2531703 306.333881,54.9873046 307.202809,51.557249 L312.340006,51.557249 C313.256581,51.557249 314,50.8138296 314,49.8972556 L314,35.0521094 C314.000166,34.1353693 313.256747,33.3921159 312.340173,33.3921159 Z M305.886801,48.2372621 C305.104201,48.2372621 304.428184,48.7836206 304.263829,49.5484561 C303.414159,53.50362 301.868052,57.2349945 299.668507,60.6389855 C299.243672,61.2962427 299.335479,62.1605217 299.88881,62.7138528 L303.281678,66.1068868 L295.135276,74.259266 L291.739419,70.8632438 C291.186088,70.3100786 290.321809,70.2179398 289.664552,70.6429406 C286.260727,72.8426519 282.529353,74.3887584 278.573857,75.2387601 C277.808855,75.4029499 277.262663,76.0792989 277.262663,76.861566 L277.262663,81.6720441 L265.737669,81.6720441 L265.737669,76.861566 C265.737669,76.0791328 265.191311,75.4029499 264.426475,75.2387601 C260.471146,74.3887584 256.739605,72.8424859 253.33578,70.6429406 C252.678689,70.2181058 251.814576,70.3099126 251.260913,70.8632438 L247.865056,74.259266 L239.718654,66.1068868 L243.111356,62.7136868 C243.664687,62.1603557 243.756494,61.2960766 243.331659,60.6388195 C241.131948,57.2348285 239.586007,53.50362 238.736337,49.54829 C238.571982,48.7832886 237.895799,48.2370961 237.113366,48.2370961 L232.320817,48.2370961 L232.32696,36.7121029 L237.113366,36.7121029 C237.895965,36.7121029 238.571982,36.1655784 238.736337,35.4009089 C239.585841,31.445911 241.13228,27.7145365 243.331825,24.3107115 C243.75666,23.6536204 243.664853,22.7891753 243.111522,22.2358442 L239.73675,18.8609059 L247.889129,10.7145033 L251.261079,14.0864533 C251.814576,14.6397844 252.679021,14.7314252 253.335946,14.3069224 C256.739771,12.1072111 260.470813,10.5611046 264.426143,9.71143497 C265.191145,9.54707918 265.737337,8.87089622 265.737337,8.08846305 L265.737337,3.32015296 L277.262331,3.32015296 L277.262331,8.08862907 C277.262331,8.87106223 277.808689,9.54724519 278.573525,9.71160098 C282.528689,10.5612706 286.259897,12.1075432 289.663722,14.3070885 C290.320813,14.7315912 291.184926,14.6399504 291.738589,14.0866193 L295.110539,10.7146693 L303.262918,18.861072 L299.88798,22.2360102 C299.334649,22.7893413 299.242842,23.6536204 299.667677,24.3108775 C301.867388,27.7147025 303.413495,31.446077 304.263165,35.4010749 C304.42752,36.1660764 305.103703,36.7122689 305.886136,36.7122689 L310.679681,36.7122689 L310.679681,48.2370961 L305.886801,48.2370961 L305.886801,48.2372621 Z M293.621376,27.2013812 C294.758419,25.2902056 294.506075,22.7758941 292.863181,21.1331662 C290.921293,19.1914437 287.762009,19.1916097 285.820287,21.1331662 C283.878564,23.0748888 283.878564,26.2343383 285.820287,28.1760608 C286.791148,29.1467561 288.066483,29.6321867 289.341817,29.6321867 C289.922209,29.6321867 290.502269,29.530419 291.05394,29.3293736 C293.686122,33.2229457 295.072024,37.7478764 295.072024,42.4962646 C295.072024,55.4939852 284.497638,66.0682051 271.500083,66.0682051 C270.226243,66.0682051 268.947588,65.9657733 267.699646,65.7637318 C266.793033,65.6168077 265.942201,66.2320628 265.795609,67.1368498 C265.649017,68.0418027 266.26394,68.8942946 267.168727,69.0408867 C268.591484,69.2713168 270.048772,69.388192 271.499751,69.388192 C286.327964,69.388192 298.391678,57.3244771 298.391678,42.4962646 C298.391845,36.9684315 296.745962,31.7050619 293.621376,27.2013812 Z M290.51555,25.8282633 C289.86842,26.4755595 288.815214,26.4757255 288.168084,25.8282633 C287.85448,25.5146592 287.681658,25.0977931 287.681658,24.6545305 C287.681658,24.2112679 287.85448,23.7942359 288.168084,23.4807978 C288.491649,23.1570667 288.916816,22.9953671 289.341817,22.9953671 C289.766984,22.9953671 290.191819,23.1572327 290.515384,23.4807978 C290.828988,23.7944019 291.001645,24.2112679 291.001645,24.6545305 C291.001645,25.0977931 290.828988,25.5146592 290.51555,25.8282633 Z M275.17717,15.853693 C273.967412,15.6880091 272.730095,15.6041711 271.499917,15.6041711 C256.671705,15.6041711 244.60799,27.667886 244.60799,42.4960986 C244.60799,48.0270859 246.254038,53.2876333 249.378956,57.7903179 C248.241581,59.7016595 248.493925,62.215971 250.136819,63.8590309 C251.10768,64.8298921 252.383014,65.3151568 253.658183,65.3151568 C254.933518,65.3151568 256.208852,64.8297261 257.179713,63.8590309 C259.12127,61.9173083 259.12127,58.7580248 257.179713,56.8161363 C255.767084,55.4033405 253.709814,55.0195117 251.945396,55.6629895 C249.312882,51.7702475 247.927977,47.247143 247.927977,42.4959325 C247.927977,29.4982119 258.502362,18.923992 271.499917,18.923992 C272.580017,18.923992 273.665761,18.9977031 274.726769,19.142967 C275.633382,19.2668149 276.472261,18.6316379 276.596607,17.7235307 C276.720953,16.8152574 276.08561,15.978039 275.17717,15.853693 Z M252.484616,59.1640998 C252.79822,58.8506617 253.21492,58.6776731 253.658349,58.6776731 C254.101778,58.6776731 254.518644,58.8504957 254.831916,59.1640998 C255.145354,59.477704 255.318342,59.894404 255.318342,60.3376666 C255.318342,60.7812612 255.14552,61.1981272 254.831916,61.5113993 C254.518312,61.8250035 254.101612,61.99766 253.658349,61.99766 C253.214754,61.99766 252.798054,61.8250035 252.484616,61.5113993 C252.171178,61.1977952 251.998356,60.7810952 251.998356,60.3376666 C251.998522,59.894404 252.171178,59.4775379 252.484616,59.1640998 Z M262.786404,64.4055554 L262.715183,64.3770006 C261.863023,64.037 260.897973,64.4525379 260.55847,65.3041997 C260.218967,66.1558615 260.634007,67.1212443 261.485835,67.4609129 L261.563862,67.4921239 C261.764576,67.5716455 261.971266,67.6093312 262.174801,67.6093312 C262.835545,67.6093312 263.460429,67.211723 263.718583,66.5602764 C264.056094,65.7079505 263.63873,64.7430658 262.786404,64.4055554 Z M281.56231,17.5505421 L281.530269,17.5375928 C280.677777,17.2000824 279.718703,17.6194387 279.381026,18.4714325 C279.04335,19.3239244 279.466026,20.2909673 280.318186,20.6286438 C280.318186,20.6286438 280.322503,20.6303039 280.322669,20.6304699 C280.526204,20.7126478 280.736214,20.7514956 280.942738,20.7514956 C281.599165,20.7514956 282.220065,20.3585358 282.481374,19.7122357 C282.824695,18.8624001 282.412145,17.8940291 281.56231,17.5505421 Z M286.912672,32.9503475 L272.304596,24.856738 C271.803892,24.5793253 271.196108,24.5793253 270.69557,24.856738 L256.087494,32.9503475 C255.559564,33.2428676 255.232014,33.798855 255.232014,34.402323 L255.232014,50.5897081 C255.232014,51.1933421 255.55973,51.7491635 256.087494,52.0416836 L270.69557,60.1352931 C270.945922,60.2739164 271.222836,60.3433111 271.500083,60.3433111 C271.77733,60.3433111 272.05441,60.2739164 272.304762,60.1352931 L286.912838,52.0416836 C287.440768,51.7491635 287.768318,51.1933421 287.768318,50.5897081 L287.768318,34.402323 C287.767986,33.798855 287.44027,33.2428676 286.912672,32.9503475 Z M269.839924,55.865861 L258.552001,49.6118742 L258.552001,37.2199457 L269.839924,43.4740985 L269.839924,55.865861 Z M271.499917,40.5985363 L260.317249,34.402655 L271.499917,28.2067738 L282.682751,34.402655 L271.499917,40.5985363 Z M284.447999,49.6117081 L273.160077,55.865861 L273.160077,43.4740985 L284.447999,37.2199457 L284.447999,49.6117081 Z" id="settings-1" stroke="#000000" stroke-width="0.5" fill="#D33E43"></path>
                            <g id="if_14_2065404" transform="translate(4.000000, 0.000000)">
                                <g id="XMLID_9052_" transform="translate(0.962867, 0.595152)">
                                    <g id="XMLID_5302_">
                                        <g id="XMLID_5311_" fill="#D33E43">
                                            <polyline id="XMLID_5316_" points="1.33677153 73.5966993 19.160392 73.5966993 19.160392 91.4760186"></polyline>
                                            <g id="XMLID_5312_">
                                                <path d="M72.0371325,92.8313564 L17.1552347,92.8313564 L0,74.877772 L0,0 L72.0371325,0 L72.0371325,92.8313564 Z M18.3063435,90.1206808 L69.3450232,90.1206808 L69.3450232,2.71067561 L2.69210933,2.71067561 L2.69210933,73.8009283 L18.3063435,90.1206808 Z" id="XMLID_5313_"></path>
                                            </g>
                                        </g>
                                        <g id="XMLID_5307_" transform="translate(7.612171, 7.612171)" fill="#D33E43">
                                            <path d="M56.738525,50.6673543 L0.0742650851,50.6673543 L0.0742650851,0.111397628 L56.7570913,0.111397628 L56.7570913,50.6673543 L56.738525,50.6673543 Z M2.76637442,47.9566787 L54.0278494,47.9566787 L54.0278494,2.80350696 L2.76637442,2.80350696 L2.76637442,47.9566787 Z" id="XMLID_5308_"></path>
                                        </g>
                                        <g id="XMLID_5305_" transform="translate(28.777720, 74.636411)" fill="#000000">
                                            <rect id="XMLID_5306_" x="0.0371325425" y="0.129963899" width="34.1805054" height="2.71067561"></rect>
                                        </g>
                                        <g id="XMLID_5303_" transform="translate(45.858690, 68.138216)" fill="#000000">
                                            <rect id="XMLID_5304_" x="0.0556988138" y="0.14853017" width="17.0995358" height="2.71067561"></rect>
                                        </g>
                                    </g>
                                    <g id="power" transform="translate(20.000000, 15.000000)">
                                        <circle id="Oval" fill="#F25353" cx="2.7890625" cy="2.7890625" r="2.125"></circle>
                                        <circle id="Oval" fill="#657FC9" cx="2.7890625" cy="12.2632422" r="2.125"></circle>
                                        <circle id="Oval" fill="#FDB954" cx="2.7890625" cy="21.7367578" r="2.125"></circle>
                                        <circle id="Oval" fill="#44C5CB" cx="2.7890625" cy="31.2109375" r="2.125"></circle>
                                        <rect id="Rectangle-path" fill="#AAEBF2" x="20.5859375" y="0.6640625" width="12.75" height="32.671875"></rect>
                                        <rect id="Rectangle-path" fill="#34BFE0" x="20.5859375" y="5.69167969" width="5.77335938" height="22.6073437"></rect>
                                        <path d="M33.3359375,0 L20.5859375,0 C20.2191758,0 19.921875,0.297367187 19.921875,0.6640625 L19.921875,5.02741797 L12.0759766,5.02741797 L9.36799609,2.31950391 C9.24348437,2.19499219 9.07454687,2.125 8.8984375,2.125 L5.49757422,2.125 C5.1988125,0.906777344 4.09812891,0 2.7890625,0 C1.25116016,0 0,1.25116016 0,2.7890625 C0,4.32696484 1.25116016,5.578125 2.7890625,5.578125 C4.09812891,5.578125 5.1988125,4.67134766 5.49757422,3.453125 L8.62331641,3.453125 L11.3312305,6.16103906 C11.4557422,6.28555078 11.6246797,6.35554297 11.8007891,6.35554297 L19.921875,6.35554297 L19.921875,11.5989805 L12.1333516,11.5989805 C11.7665898,11.5989805 11.4692891,11.8963477 11.4692891,12.263043 C11.4692891,12.6297383 11.7665898,12.9271055 12.1333516,12.9271055 L19.921875,12.9271055 L19.921875,21.0728945 L17.0583711,21.0728945 C16.6916094,21.0728945 16.3943086,21.3702617 16.3943086,21.736957 C16.3943086,22.1036523 16.6916094,22.4010195 17.0583711,22.4010195 L19.921875,22.4010195 L19.921875,27.6346953 L11.8009219,27.6346953 C11.6248125,27.6346953 11.455875,27.7046875 11.3313633,27.8291992 L8.62344922,30.5371133 L5.49538281,30.5371133 C5.19316797,29.3237383 4.09467578,28.421875 2.7890625,28.421875 C1.25116016,28.421875 0,29.6730352 0,31.2109375 C0,32.7488398 1.25116016,34 2.7890625,34 C4.10158203,34 5.20458984,33.088375 5.49983203,31.8653047 L8.8984375,31.8653047 C9.07454687,31.8653047 9.24348437,31.7953125 9.36799609,31.6708008 L12.0759766,28.9628867 L19.921875,28.9628867 L19.921875,33.3359375 C19.921875,33.7026328 20.2191758,34 20.5859375,34 L33.3359375,34 C33.7026992,34 34,33.7026328 34,33.3359375 L34,0.6640625 C34,0.297367187 33.7026992,0 33.3359375,0 Z M2.7890625,4.25 C1.98348828,4.25 1.328125,3.59463672 1.328125,2.7890625 C1.328125,1.98348828 1.98348828,1.328125 2.7890625,1.328125 C3.59463672,1.328125 4.25,1.98348828 4.25,2.7890625 C4.25,3.59463672 3.59463672,4.25 2.7890625,4.25 Z M2.7890625,32.671875 C1.98348828,32.671875 1.328125,32.0165117 1.328125,31.2109375 C1.328125,30.4053633 1.98348828,29.75 2.7890625,29.75 C3.59463672,29.75 4.25,30.4053633 4.25,31.2109375 C4.25,32.0165117 3.59463672,32.671875 2.7890625,32.671875 Z M21.25,6.35554297 L25.7034023,6.35554297 L25.7034023,11.5989805 L21.25,11.5989805 L21.25,6.35554297 Z M21.25,12.9271055 L25.7034023,12.9271055 L25.7034023,21.0728945 L21.25,21.0728945 L21.25,12.9271055 Z M21.25,22.4010195 L25.7034023,22.4010195 L25.7034023,27.6346953 L21.25,27.6346953 L21.25,22.4010195 Z M32.671875,32.671875 L21.25,32.671875 L21.25,28.9628203 L25.7034023,28.9628203 L25.7034023,29.0444336 C25.7034023,29.4111289 26.0007031,29.7084961 26.3674648,29.7084961 C26.7342266,29.7084961 27.0315273,29.4111289 27.0315273,29.0444336 L27.0315273,4.95556641 C27.0315273,4.58887109 26.7342266,4.29150391 26.3674648,4.29150391 C26.0007031,4.29150391 25.7034023,4.58887109 25.7034023,4.95556641 L25.7034023,5.02741797 L21.25,5.02741797 L21.25,1.328125 L32.671875,1.328125 L32.671875,32.671875 Z" id="Shape" fill="#000000"></path>
                                        <path d="M22.9695898,4.05071484 L22.9802813,4.05078125 C22.9816758,4.05078125 22.9830039,4.05078125 22.9843984,4.05078125 C23.3492344,4.05078125 23.6461367,3.75607031 23.6483945,3.39076953 C23.6505859,3.02407422 23.3550781,2.72491406 22.9883828,2.72265625 L22.977625,2.72258984 C22.9762305,2.72258984 22.9749023,2.72258984 22.9735078,2.72258984 C22.6086719,2.72258984 22.3117695,3.01730078 22.3095117,3.38260156 C22.3073203,3.74936328 22.6028281,4.04852344 22.9695898,4.05071484 Z" id="Shape" fill="#000000"></path>
                                        <path d="M30.927582,4.05071484 L30.9383398,4.05078125 C30.9397344,4.05078125 30.9410625,4.05078125 30.942457,4.05078125 C31.307293,4.05078125 31.6041953,3.75607031 31.6064531,3.39076953 C31.6086445,3.02407422 31.3131367,2.72491406 30.9464414,2.72265625 L30.9356836,2.72258984 C30.9342891,2.72258984 30.9329609,2.72258984 30.9315664,2.72258984 C30.5667305,2.72258984 30.2698281,3.01730078 30.2675703,3.38260156 C30.2653125,3.74936328 30.5608203,4.04852344 30.927582,4.05071484 Z" id="Shape" fill="#000000"></path>
                                        <path d="M22.9883164,29.9492188 L22.9775586,29.9491523 C22.9761641,29.9491523 22.9748359,29.9491523 22.9734414,29.9491523 C22.6086055,29.9491523 22.3117031,30.2438633 22.3094453,30.6091641 C22.3072539,30.9758594 22.6027617,31.2750195 22.969457,31.2772773 L22.9802148,31.2773438 C22.9816094,31.2773438 22.9829375,31.2773438 22.984332,31.2773438 C23.349168,31.2773438 23.6460703,30.9826328 23.6483281,30.617332 C23.6505859,30.2505703 23.3550781,29.9514102 22.9883164,29.9492188 Z" id="Shape" fill="#000000"></path>
                                        <path d="M30.927582,31.2772773 L30.9383398,31.2773438 C30.9397344,31.2773438 30.9410625,31.2773438 30.942457,31.2773438 C31.307293,31.2773438 31.6041953,30.9826328 31.6064531,30.617332 C31.6086445,30.2506367 31.3131367,29.9514766 30.9464414,29.9492188 L30.9356836,29.9491523 C30.9342891,29.9491523 30.9329609,29.9491523 30.9315664,29.9491523 C30.5667305,29.9491523 30.2698281,30.2438633 30.2675703,30.6091641 C30.2653125,30.9759258 30.5608203,31.2750859 30.927582,31.2772773 Z" id="Shape" fill="#000000"></path>
                                        <path d="M2.7890625,15.0521055 C4.32696484,15.0521055 5.578125,13.8009453 5.578125,12.263043 C5.578125,10.7251406 4.32696484,9.47398047 2.7890625,9.47398047 C1.25116016,9.47398047 0,10.7251406 0,12.263043 C0,13.8009453 1.25116016,15.0521055 2.7890625,15.0521055 Z M2.7890625,10.8021055 C3.59463672,10.8021055 4.25,11.4574688 4.25,12.263043 C4.25,13.0686172 3.59463672,13.7239805 2.7890625,13.7239805 C1.98348828,13.7239805 1.328125,13.0686172 1.328125,12.263043 C1.328125,11.4574688 1.98348828,10.8021055 2.7890625,10.8021055 Z" id="Shape" fill="#000000"></path>
                                        <path d="M2.7890625,24.5260195 C4.09812891,24.5260195 5.1988125,23.6192422 5.49757422,22.4010195 L11.1372578,22.4010195 C11.5040195,22.4010195 11.8013203,22.1036523 11.8013203,21.736957 C11.8013203,21.3702617 11.5040195,21.0728945 11.1372578,21.0728945 L5.49757422,21.0728945 C5.1988125,19.8546719 4.0980625,18.9478945 2.7890625,18.9478945 C1.25116016,18.9478945 0,20.1990547 0,21.736957 C0,23.2748594 1.25116016,24.5260195 2.7890625,24.5260195 Z M2.7890625,20.2760195 C3.59463672,20.2760195 4.25,20.9313828 4.25,21.736957 C4.25,22.5425313 3.59463672,23.1978945 2.7890625,23.1978945 C1.98348828,23.1978945 1.328125,22.5425313 1.328125,21.736957 C1.328125,20.9313828 1.98348828,20.2760195 2.7890625,20.2760195 Z" id="Shape" fill="#000000"></path>
                                        <path d="M14.7760547,22.2061836 C14.8995703,22.0827344 14.970625,21.9114062 14.970625,21.7367578 C14.970625,21.5621094 14.8995703,21.3907812 14.7760547,21.2672656 C14.6525391,21.14375 14.4812109,21.0726953 14.3065625,21.0726953 C14.1319141,21.0726953 13.9605859,21.1436836 13.8370703,21.2672656 C13.7135547,21.3907812 13.6425,21.5621094 13.6425,21.7367578 C13.6425,21.9114062 13.7135547,22.0827344 13.8370703,22.2061836 C13.9605859,22.3303633 14.1319141,22.4008203 14.3065625,22.4008203 C14.4812109,22.4008203 14.6525391,22.3304297 14.7760547,22.2061836 Z" id="Shape" fill="#000000"></path>
                                        <path d="M8.74238281,12.9273047 C8.56773438,12.9273047 8.39640625,12.85625 8.27289063,12.7327344 C8.149375,12.6085547 8.07832031,12.4378906 8.07832031,12.2632422 C8.07832031,12.0885937 8.149375,11.9172656 8.27289063,11.79375 C8.39640625,11.6695703 8.56773438,11.5991797 8.74238281,11.5991797 C8.91769531,11.5991797 9.08835938,11.6695703 9.211875,11.79375 C9.33605469,11.9172656 9.40644531,12.0885937 9.40644531,12.2632422 C9.40644531,12.4378906 9.33605469,12.6085547 9.211875,12.7327344 C9.08835938,12.85625 8.91769531,12.9273047 8.74238281,12.9273047 Z" id="Shape" fill="#000000"></path>
                                    </g>
                                </g>
                            </g>
                        </g>
                    </g>
                </g>
            </g>
        </g>
    </g>
</svg>