<?xml version="1.0" encoding="UTF-8"?>
<svg width="63px" height="68px" viewBox="0 0 63 68" version="1.1" xmlns="http://www.w3.org/2000/svg" xmlns:xlink="http://www.w3.org/1999/xlink">
    <!-- Generator: Sketch 51.1 (57501) - http://www.bohemiancoding.com/sketch -->
    <title>if_caliper_1542951</title>
    <desc>Created with Sketch.</desc>
    <defs></defs>
    <g id="Page-1" stroke="none" stroke-width="1" fill="none" fill-rule="evenodd">
        <g id="if_caliper_1542951" transform="translate(2.000000, 2.000000)">
            <polygon id="Shape" fill="#D33E43" fill-rule="nonzero" points="19.1978796 1.60387349 49.5742714 1.60387349 52.1987917 6.80431176 60.849988 8.55399193 60.849988 12.00475 1.84688462 12.00475 1.84688462 8.55399193"></polygon>
            <rect id="Rectangle-path" fill="#D33E43" fill-rule="nonzero" x="31.3484363" y="12.00475" width="15.6013148" height="19.9755152"></rect>
            <rect id="Rectangle-path" fill="#D33E43" fill-rule="nonzero" x="27.8976782" y="42.4297441" width="6.07527836" height="17.350995"></rect>
            <rect id="Rectangle-path" fill="#D33E43" fill-rule="nonzero" x="44.3738331" y="42.4297441" width="6.07527836" height="17.350995"></rect>
            <polygon id="Shape" fill="#D33E43" fill-rule="nonzero" points="44.3738331 59.780739 44.3738331 42.4297441 33.9729566 42.4297441 33.9729566 59.780739 31.3484363 59.780739 31.3484363 64.9811773 46.9497512 64.9811773 46.9497512 59.780739"></polygon>
            <polygon id="Shape" fill="#D33E43" fill-rule="nonzero" points="1.84688462 31.9802653 1.84688462 35.4796256 19.1978796 42.4297441 35.6740345 42.4297441 35.6740345 31.9802653"></polygon>
            <rect id="Rectangle-path" fill="#D33E43" fill-rule="nonzero" x="35.6740345" y="31.9802653" width="6.95011844" height="10.4008765"></rect>
            <polygon id="Shape" fill="#D33E43" fill-rule="nonzero" points="42.624153 31.9802653 42.624153 42.4297441 49.5742714 42.4297441 52.1987917 37.1807036 60.849988 35.4796256 60.849988 31.9802653"></polygon>
            <polygon id="Shape" stroke="#231F20" stroke-width="3" stroke-linecap="round" stroke-linejoin="round" points="17.7398128 0.145806681 48.1162046 0.145806681 50.7407248 5.34624496 59.3919212 7.09592512 59.3919212 10.5466832 0.388817815 10.5466832 0.388817815 7.09592512"></polygon>
            <rect id="Rectangle-path" stroke="#231F20" stroke-width="3" stroke-linecap="round" stroke-linejoin="round" x="29.8903695" y="10.5466832" width="15.6013148" height="19.9755152"></rect>
            <rect id="Rectangle-path" stroke="#231F20" stroke-width="3" stroke-linecap="round" stroke-linejoin="round" x="26.4396114" y="40.9716772" width="6.07527836" height="17.350995"></rect>
            <rect id="Rectangle-path" stroke="#231F20" stroke-width="3" stroke-linecap="round" stroke-linejoin="round" x="42.9157663" y="40.9716772" width="6.07527836" height="17.350995"></rect>
            <polygon id="Shape" stroke="#231F20" stroke-width="3" stroke-linecap="round" stroke-linejoin="round" points="42.9157663 58.3226722 42.9157663 40.9716772 32.5148898 40.9716772 32.5148898 58.3226722 29.8903695 58.3226722 29.8903695 63.5231105 45.4916843 63.5231105 45.4916843 58.3226722"></polygon>
            <polygon id="Shape" stroke="#231F20" stroke-width="3" stroke-linecap="round" stroke-linejoin="round" points="0.388817815 30.5221985 0.388817815 34.0215588 17.7398128 40.9716772 34.2159677 40.9716772 34.2159677 30.5221985"></polygon>
            <rect id="Rectangle-path" stroke="#231F20" stroke-width="3" stroke-linecap="round" stroke-linejoin="round" x="34.2159677" y="30.5221985" width="6.95011844" height="10.4008765"></rect>
            <polygon id="Shape" stroke="#231F20" stroke-width="3" stroke-linecap="round" stroke-linejoin="round" points="41.1660862 30.5221985 41.1660862 40.9716772 48.1162046 40.9716772 50.7407248 35.7226367 59.3919212 34.0215588 59.3919212 30.5221985"></polygon>
            <path d="M36.840488,4.47140487 L38.5901681,4.47140487" id="Shape" stroke="#FFFFFF" stroke-width="3" stroke-linecap="round" stroke-linejoin="round"></path>
            <path d="M36.840488,7.97076521 L38.5901681,7.97076521" id="Shape" stroke="#FFFFFF" stroke-width="3" stroke-linecap="round" stroke-linejoin="round"></path>
            <path d="M36.840488,14.0460436 L38.5901681,14.0460436" id="Shape" stroke="#FFFFFF" stroke-width="3" stroke-linecap="round" stroke-linejoin="round"></path>
            <path d="M36.840488,18.3716418 L38.5901681,18.3716418" id="Shape" stroke="#FFFFFF" stroke-width="3" stroke-linecap="round" stroke-linejoin="round"></path>
            <path d="M36.840488,22.6972399 L38.5901681,22.6972399" id="Shape" stroke="#FFFFFF" stroke-width="3" stroke-linecap="round" stroke-linejoin="round"></path>
            <path d="M36.840488,27.0714404 L38.5901681,27.0714404" id="Shape" stroke="#FFFFFF" stroke-width="3" stroke-linecap="round" stroke-linejoin="round"></path>
            <path d="M36.840488,44.4224354 L38.5901681,44.4224354" id="Shape" stroke="#FFFFFF" stroke-width="3" stroke-linecap="round" stroke-linejoin="round"></path>
            <path d="M36.840488,49.0396469 L38.5901681,49.0396469" id="Shape" stroke="#FFFFFF" stroke-width="3" stroke-linecap="round" stroke-linejoin="round"></path>
            <path d="M36.840488,53.6568585 L38.5901681,53.6568585" id="Shape" stroke="#FFFFFF" stroke-width="3" stroke-linecap="round" stroke-linejoin="round"></path>
            <path d="M36.840488,58.3226722 L38.5901681,58.3226722" id="Shape" stroke="#FFFFFF" stroke-width="3" stroke-linecap="round" stroke-linejoin="round"></path>
        </g>
    </g>
</svg>