<?xml version="1.0" encoding="UTF-8" standalone="no"?>
<svg width="498px" height="319px" viewBox="0 0 498 319" version="1.1" xmlns="http://www.w3.org/2000/svg" xmlns:xlink="http://www.w3.org/1999/xlink">
    <!-- Generator: Sketch 42 (36781) - http://www.bohemiancoding.com/sketch -->
    <title>1490565243_message</title>
    <desc>Created with Sketch.</desc>
    <defs></defs>
    <g id="Page-1" stroke="none" stroke-width="1" fill="none" fill-rule="evenodd">
        <g id="1490565243_message" fill-rule="nonzero" fill="#9DA890">
            <path d="M477.748,0.359 L20.439,0.359 L16.473,0.359 L6.848,0.359 L0.218,0.359 L0.218,318.944 L498,318.944 L498,0.359 L480.782,0.359 L477.748,0.359 Z M457.837,20.271 L265.529,212.578 C256.76,221.347 241.456,221.347 232.687,212.578 L40.35,20.271 L457.837,20.271 Z M20.128,28.203 L149.415,157.471 L20.128,286.759 L20.128,28.203 Z M36.014,299.029 L163.503,171.559 L218.609,226.656 C226.747,234.804 237.587,239.296 249.108,239.296 C260.629,239.296 271.469,234.804 279.607,226.656 L334.713,171.55 L462.192,299.029 L36.014,299.029 L36.014,299.029 Z M478.089,286.769 L348.801,157.472 L478.088,28.175 L478.088,286.769 L478.089,286.769 Z" id="Shape"></path>
        </g>
    </g>
</svg>