<?xml version="1.0" encoding="UTF-8"?>
<svg width="84px" height="99px" viewBox="0 0 84 99" version="1.1" xmlns="http://www.w3.org/2000/svg" xmlns:xlink="http://www.w3.org/1999/xlink">
    <!-- Generator: Sketch 52.5 (67469) - http://www.bohemiancoding.com/sketch -->
    <title>Artboard</title>
    <desc>Created with Sketch.</desc>
    <defs>
        <path d="M30.881,11.81 L30.881,2.788 C30.8028518,2.06700978 31.0598179,1.35002273 31.5781507,0.842809602 C32.0964835,0.335596476 32.8188738,0.0942370679 33.538,0.188 L43.238,0.188 C43.9294949,0.116580579 44.6163655,0.360510934 45.1079273,0.852072701 C45.5994891,1.34363447 45.8434194,2.03050509 45.772,2.722 L45.772,11.374 C45.772,11.93 45.896,12.174 46.513,12.301 C57.7495821,13.9537388 67.1344516,21.7186401 70.862,32.447 C72.4557754,36.639094 73.5956194,40.9899455 74.262,45.425 C74.3751395,46.011127 74.583927,46.5746505 74.88,47.093 C77.661,51.975 80.38,56.793 83.28,61.615 C83.8399368,62.3715723 83.939541,63.3743911 83.5393678,64.2263256 C83.1391946,65.0782601 82.3037952,65.6418863 81.364,65.694 C77.038,66.494 72.774,67.486 68.448,68.413 C67.83,68.537 67.648,68.784 67.648,69.402 L67.648,88.065 C67.648,89.486 67.215,90.29 66.103,90.665 C65.72346,90.7864672 65.3275017,90.8488627 64.929,90.85 L50.407,90.85 C50.407,91.159 50.345,91.406 50.345,91.65 L50.345,96.35 C50.4168108,97.0591536 50.1660499,97.7630264 49.6620381,98.2670381 C49.1580264,98.7710499 48.4541536,99.0218108 47.745,98.95 L17.588,98.95 C15.549,98.95 14.688,98.085 14.688,96.05 L14.688,77.882 C14.7263682,77.3218299 14.4682984,76.78254 14.008,76.461 C6.97363002,70.8116356 2.39119277,62.6651999 1.216,53.72 C-0.0791338489,45.3152555 1.21379486,36.7153787 4.923,29.063 C8.569,21.585 14.502,16.704 22.288,13.984 C24.8079702,13.2150084 27.3656496,12.5755051 29.951,12.068 C30.254718,11.9607789 30.5654513,11.8745755 30.881,11.81 Z M45.775,16.692 L45.775,31.462 C45.6917143,32.0148249 45.9986445,32.5525733 46.517,32.762 C51.7570554,35.5136929 55.0236232,40.9594504 54.9842621,46.8779337 C54.944901,52.7964171 51.6061907,58.1982458 46.33,60.88 C43.1992994,62.8271918 39.4687973,63.5732922 35.83,62.98 C32.2774224,62.3139076 29.0178093,60.565341 26.498,57.974 C23.5834549,55.3049858 21.8308352,51.6001444 21.616,47.654 C21.369,40.918 24.335,35.854 30.206,32.514 C30.6449417,32.3243453 30.9171873,31.8791436 30.886,31.402 L30.886,17.312 C30.8924649,17.0223614 30.8717071,16.7327558 30.824,16.447 C29.588,16.694 28.414,16.879 27.24,17.189 C17.723,19.414 11.049,24.975 7.65,34.245 C5.26887753,40.5953229 4.64968084,47.4714469 5.858,54.145 C7.16137208,62.001337 11.4306714,69.0576544 17.785,73.858 C18.7239616,74.4565416 19.2487414,75.5304288 19.144,76.639 L19.144,94.439 L45.844,94.439 C45.844,92.832 45.906,91.226 45.844,89.619 C45.659,87.271 46.956,86.405 48.996,86.405 C53.384,86.467 57.771,86.405 62.221,86.405 L63.21,86.405 L63.21,67.305 C63.21,65.637 63.766,64.895 65.373,64.586 C67.783,64.03 70.255,63.535 72.665,62.979 C74.457,62.608 76.249,62.179 78.103,61.805 C77.9657386,61.5018565 77.8003477,61.2122549 77.609,60.94 C75.323,56.923 72.974,52.907 70.688,48.89 C70.3914026,48.3498261 70.1827864,47.7658358 70.07,47.16 C69.3750772,42.4107477 68.1092497,37.7627767 66.3,33.317 C63.581,26.952 59.44,21.885 53.013,19.042 C50.7390091,17.8818601 48.2958184,17.0887259 45.774,16.692 L45.775,16.692 Z M50.101,46.602 C50.0353194,42.3329432 47.6930655,38.424505 43.9593465,36.353635 C40.2256276,34.2827651 35.6698362,34.3652712 32.0135486,36.5699755 C28.357261,38.7746797 26.1580615,42.7653644 26.247,47.034 C26.371,52.596 31.685,58.714 38.112,58.714 C44.291,58.714 50.1,52.906 50.1,46.6 L50.101,46.602 Z M35.455,4.642 L35.455,30.906 L41.202,30.906 L41.202,4.642 L35.455,4.642 Z" id="path-1"></path>
    </defs>
    <g id="Artboard" stroke="none" stroke-width="1" fill="none" fill-rule="evenodd">
        <rect fill="#FFFFFF" x="0" y="0" width="84" height="99"></rect>
        <g id="Group_51" transform="translate(0.000000, -1.000000)">
            <g id="Group_100" transform="translate(0.236000, 0.819000)">
                <path d="M47.134,18.423 L47.134,33.193 C47.051094,33.745754 47.3578987,34.2832825 47.876,34.493 C53.1161497,37.2445078 56.3829083,42.6901471 56.3437577,48.6086292 C56.3046071,54.5271114 52.9660918,59.9290569 47.69,62.611 C44.5578567,64.5592239 40.8254173,65.3053565 37.185,64.711 C33.6323344,64.0451573 30.3726499,62.2965525 27.853,59.705 C24.9378418,57.0364382 23.1850965,53.3313315 22.971,49.385 C22.723,42.649 25.69,37.585 31.56,34.245 C31.9987369,34.0551095 32.2708841,33.6100688 32.24,33.133 L32.24,19.043 C32.2462194,18.7533675 32.2254631,18.4637848 32.178,18.178 C30.942,18.425 29.768,18.61 28.594,18.92 C19.077,21.145 12.403,26.706 9.004,35.976 C6.62287753,42.3263229 6.00368084,49.2024469 7.212,55.876 C8.51556738,63.7322648 12.784826,70.7885149 19.139,75.589 C20.0785212,76.1871281 20.6037679,77.2611804 20.499,78.37 L20.499,96.17 L47.199,96.17 C47.199,94.563 47.261,92.956 47.199,91.35 C47.013,89.002 48.311,88.136 50.35,88.136 C54.738,88.198 59.125,88.136 63.575,88.136 L64.564,88.136 L64.564,69.036 C64.564,67.368 65.12,66.626 66.727,66.317 C69.137,65.761 71.609,65.267 74.019,64.71 C75.811,64.339 77.603,63.91 79.457,63.536 C79.3189459,63.2330609 79.153244,62.943501 78.962,62.671 C76.676,58.654 74.328,54.638 72.041,50.621 C71.7444026,50.0808261 71.5357864,49.4968358 71.423,48.891 C70.7280772,44.1417477 69.4622497,39.4937767 67.653,35.048 C64.934,28.683 60.793,23.616 54.366,20.773 C52.1175857,19.5601024 49.6680282,18.7645891 47.136,18.425 L47.134,18.423 Z" id="Path_415" fill="#FFFFFF" opacity="0.5"></path>
                <g id="Group-2">
                    <mask id="mask-2" fill="white">
                        <use xlink:href="#path-1"></use>
                    </mask>
                    <use id="Path_418" fill="#000000" fill-rule="nonzero" xlink:href="#path-1"></use>
                    <path d="M43.673,46.911 C43.5721624,50.0142542 41.0009691,52.4630589 37.8964878,52.4125507 C34.7920066,52.3620425 32.3018345,49.8308921 32.302,46.726 C32.4085073,43.681108 34.9409107,41.2863497 37.987,41.35 C39.5057974,41.2330796 41.0012425,41.7768032 42.090276,42.8418955 C43.1793095,43.9069879 43.7561357,45.3899792 43.673,46.911 Z M38.173,44.872 C37.6709414,44.8203948 37.1695558,44.9758128 36.7847089,45.3023381 C36.399862,45.6288634 36.1648564,46.0982403 36.134,46.602 C36.1511214,47.6601772 37.0228228,48.5041198 38.081,48.486999 C39.1391772,48.4698782 39.9831203,47.5981772 39.966,46.54 C39.9498479,46.0808095 39.7517937,45.6468804 39.4154748,45.3338206 C39.0791559,45.0207608 38.6321694,44.8542588 38.173,44.871 L38.173,44.872 Z" id="Path_420" fill="#FFFFFF" fill-rule="nonzero" mask="url(#mask-2)"></path>
                </g>
                <g id="Group_99" transform="translate(41.363000, 58.753000)" fill="#000000">
                    <path d="M30.366,21.652 C17.203,21.652 9.726,17.017 5.771,13.062 C3.05139481,10.5355747 1.08351999,7.30619723 0.085,3.731 C-0.307398315,2.10976812 0.688768117,0.477398315 2.31,0.085 C3.93123188,-0.307398315 5.56360169,0.688768117 5.956,2.31 C6.08,2.928 9.664,15.596 30.304,15.596 L30.798,15.596 C32.487439,15.5788792 33.8708792,16.934561 33.888,18.624 C33.9051208,20.313439 32.549439,21.6968792 30.86,21.714 C30.7014785,21.6590252 30.5331903,21.637904 30.366,21.652 Z" id="Path_421"></path>
                </g>
            </g>
            <g id="Group-3" transform="translate(26.000000, 5.000000)">
                <circle id="Oval" fill="#D33E43" cx="12.5" cy="42.5" r="12.5"></circle>
                <polygon id="Path_416" fill="#D33E43" points="9.37 0.511 9.37 26.775 16.117 26.775 16.117 0.511"></polygon>
                <circle id="Oval" fill="#FFFFFF" cx="12.5" cy="42.5" r="8.5"></circle>
            </g>
        </g>
    </g>
</svg>